<!-- Generated by IcoMoon.io -->
<svg version="1.1" xmlns="http://www.w3.org/2000/svg" width="32" height="32" viewBox="0 0 32 32">
<title>carrot-svgrepo-com</title>
<path d="M20.367 11.097c-0.923-0.725-4.177-2.848-7.272 0.247-0.109 0.109-0.225 0.232-0.337 0.348l0.301 0.082c0.062 0.009 2.614 0.477 3.852 1.714 0.208 0.209 0.208 0.546 0 0.754-0.105 0.105-0.241 0.156-0.378 0.156s-0.273-0.052-0.377-0.156c-0.833-0.833-2.687-1.314-3.331-1.429l-0.89-0.241c-0.629 0.698-1.302 1.499-2.009 2.394l0.319 0.069c0.733 0.181 2.509 0.697 3.466 1.652 0.208 0.209 0.208 0.546 0 0.754-0.105 0.105-0.241 0.156-0.378 0.156s-0.273-0.052-0.377-0.156c-0.626-0.626-1.935-1.117-2.952-1.367l-0.801-0.174c-0.571 0.753-1.159 1.565-1.76 2.432l0.364 0.11c0.683 0.212 1.938 0.681 2.702 1.445 0.208 0.209 0.208 0.546 0 0.754-0.104 0.105-0.241 0.156-0.378 0.156s-0.273-0.052-0.377-0.156c-0.434-0.434-1.279-0.875-2.261-1.18l-0.681-0.207c-0.622 0.926-1.253 1.91-1.889 2.948l0.419 0.183c0.603 0.252 1.503 0.773 1.966 1.236 0.208 0.209 0.208 0.546 0 0.754-0.104 0.105-0.241 0.156-0.378 0.156s-0.273-0.052-0.377-0.156c-0.337-0.337-1.115-0.794-1.631-1.009l-0.559-0.244c-1.453 2.437-2.916 5.152-4.315 8.116-0.096 0.203-0.054 0.445 0.105 0.604 0.102 0.102 0.239 0.156 0.378 0.156 0.077 0 0.155-0.017 0.227-0.051 9.565-4.514 16.549-9.697 19.895-13.044 3.094-3.094 0.972-6.348 0.247-7.272-0.156-0.199-0.336-0.38-0.536-0.536z"></path>
<path d="M31.133 5.592c-0.069-0.069-0.143-0.134-0.222-0.197 0.454-1.090 0.22-2.382-0.637-3.239-0.899-0.899-2.241-1.103-3.348-0.579-0.137-0.263-0.311-0.503-0.518-0.71-1.156-1.155-3.036-1.155-4.191 0-0.817 0.817-1.059 2.026-0.69 3.076-0.549 0.117-1.055 0.388-1.458 0.79-1.156 1.156-1.155 3.036 0 4.191 0.406 0.406 0.916 0.675 1.461 0.792l1.937-1.937v-1.379c0-0.295 0.239-0.533 0.533-0.533s0.533 0.238 0.533 0.533v0.313l1.067-1.067v-1.379c0-0.295 0.239-0.533 0.533-0.533s0.533 0.238 0.533 0.533v1.067h0.533c0.295 0 0.533 0.238 0.533 0.533s-0.238 0.533-0.533 0.533h-0.845l-1.067 1.067h0.845c0.295 0 0.533 0.238 0.533 0.533s-0.238 0.533-0.533 0.533h-1.912l-1.932 1.932c0.116 0.547 0.379 1.059 0.786 1.467 0.578 0.578 1.337 0.867 2.096 0.867s1.518-0.289 2.096-0.867c0.402-0.402 0.673-0.908 0.79-1.458 1.051 0.369 2.259 0.126 3.076-0.69 1.155-1.155 1.156-3.035 0-4.191z"></path>
</svg>
