<!-- Generated by IcoMoon.io -->
<svg version="1.1" xmlns="http://www.w3.org/2000/svg" width="32" height="32" viewBox="0 0 32 32">
<title>earth-north-svgrepo-com</title>
<path d="M16 0c-8.831 0-16 7.169-16 16s7.169 16 16 16c8.815 0 15.972-7.144 15.997-15.953 0.002-0.014 0.002-0.031 0.003-0.047v-0c0-0.015-0.001-0.030-0.002-0.044l0 0.002c-0.023-8.811-7.181-15.957-15.998-15.957zM16 0.96c0.291 0 0.579 0.009 0.865 0.025l-0.040-0.002c0.143 0.132-0.117 0.466 0.13 0.968 1.68-0.038-0.151 0.88-0.916 0.615-0.834-0.569-1.435 0.763-1.867 0.328 1.071-0.408-0.045-1.223 0.645-1.564-0.577 0.126-1.673 0.803-1.542 1.513-0.602 0.591-2.245 1.115-1.585 1.959-1.042 0.050-0.703 0.9-1.609 1.021-0.802 0.746-0.182-0.212-0.602-0.576-0.306-0.192-2.177 1.6-1.323-0.044-0.111-0.76 2.485-2.473 1.355-1.887-0.888 0.802-2.032 1.79-1.984 3.006-0.715-0.335 0.099 0.761-0.184 1.179-0.302 1.372-1.812 1.919-2.787 2.705 1.152-0.187-0.551 0.422-0.768 1.069-1.113 0.764-2.511 1.417-2.594 3.068-0.054 0.119-0.116 0.28-0.172 0.445l-0.013 0.044c0.596-7.765 7.072-13.872 14.991-13.872zM17.521 1.036c0.169 0.017 0.335 0.040 0.502 0.063-0.215 0.049-0.407 0.143-0.549 0.32-0.050-0.163-0.025-0.286 0.047-0.383zM14.585 5.059c0.698 0.009 1.518 0.156 1.986 0.898-1.486-0.182-0.439 0.563 0.428 0.475-0.709-0.76 0.717-1.52 0.793-0.815-0.035 0.715 1.88 0.613 0.86 1.413 0.396 0.642-1.042 2.565 0.477 1.761-0.246-1.266 0.432-0.637 1.338-0.198 0.637 0.178 1.191 0.41 1 0.785 0.498-0.189-0.034 0.914 1.216 0.714 0.76 0.956-1.505 1.314-1.897-0.079-1.017-0.196 0.949 1.917 1.691 1.555 0.6-1.141 0.692 0.116 0.878 0.751-0.966 0.46 0.628 0.651 0.151 0.866-1.475 0.272-2.578 1.392-2.228 2.973 0.767 0.127 0.148 2.076 0.625 2.974 0.626 1.427 1.492-1.297 1.113 0.388 0.646 0.722 0.099 1.255-0.003 2.079-0.257 0.154-1.537-0.659-1.7-1.142-0.229-0.693-0.44-0.206-0.706 0.114-0.627 0.439 0.695 1.031-0.292 1.519-0.278 1.11 1.098 1.080 0.921-0.038 0.259-0.223 0.258 1.823 0.977 0.517 1.804-1.228-1.409 1.094 0.211 0.859 1.133 0.378 0.155 1.268-0.685 1.308-0.452 0.263-0.292 2.309 0.683 1.586-0.036 0.576-0.658 2.058-1.312 2.108-0.542-0.193 0.133 0.37-0.387 0.604-0.343 0.32-0.615 1.018-0.494 1.402-1.266 0.384-2.721 0.606-4.227 0.606v0c-0.006 0-0.014 0-0.021 0-3.051 0-5.888-0.912-8.254-2.479l0.056 0.035c-0.336-0.426-0.447-0.444-0.393-0.266-0.443-0.311-0.824-0.609-1.19-0.924l0.020 0.017c0.038-0.056-0.271-0.453-0.384-0.554-0.289-0.464-1.817-1.761-1.25-1.757 0.823 1.787 0.369-0.336-0.379-0.804 0.11 0.808-0.211 0.42-0.541-0.179-1.21-1.123-0.264-0.085 0.173 0.717-0.931-1.263-1.684-2.728-2.183-4.307l-0.029-0.106c0.039-0.085 0.084-0.157 0.137-0.224l-0.002 0.002c0.762 1.315 1.843 2.064 1.86 3.704 0.622 1.008 0.371-0.501 0.735-0.592 0.943 0.816 1.197-0.040 2.068-0.068 0.796 0.755 0.519-0.358 1.211-0.044 0.322 0.463 1.836 1.258 1.97 0.342-0.381 0.121-1.106-0.476-0.578-1.037-0.744-0.925 0.151-0.039 0.447 0.375-0.222-0.58 0.71-0.007 1.012-0.138-1.617 0.364 0.556 2.265 0.797 1.212-0.446-0.72-0.192-1.118-0.191-1.99-1.011-0.481 0.247-3.362-1.127-2.383-0.076-0.582 0.093-1.796-0.499-2.039 0.438-0.781 0.611 0.998 1.048 1.419 0.547 0.38 0.66-1.044 1.368-1.016 0.012-0.75-0.164-1.386 0.047-2.218 0.132-0.953-0.65-2.876-1.675-1.344-0.537 1.743-0.332-1.137 0.782-0.684 0.274-1.007 0.539 1.322 1.477 0.229 0.797-0.555 0.218 0.114 0.504 0.637 1.005 0.608 0.203 1.928 0.087 2.726-0.321 1.178-0.58 3.080 0.732 3.727 0.611-0.965 1.054-1.818 2.016-2.419 1.352-0.394 1.4-1.471 1.412-2.58 0.179-0.659-0.255-1.268-0.304-1.923 0.555-1.033-1.173-1.768-2.077-1.233-0.211-0.755-2.254-1.53-2.369-0.615 0.114-0.674-0.47-0.723-1.068-0.326 0.336-0.306-0.417-0.212-0.108-0.495 0.478 0.428 1.234-0.085 0.281-0.506-0.59-0.77-1.402 0.694-0.792 1.181 0.835 0.873-0.409 0.382-0.759 0.889 0.342 0.625-1.132 0.67-0.47 0.367 0.134-0.52 1.519-0.957 0.604-1.498 0.671-0.658 0.569-1.876-0.597-1.224 0.335 0.336-0.834 1.293-0.575 0.634 0.74-0.872-0.193-1.937 0.802-2.668 0.635-0.46 1.936-2.36 0.719-2.312 0.067-1.19 2.543-0.32 3.392-1.221 0.188-0.011 0.408-0.024 0.64-0.020zM19.039 10.236c-0.274-0.004-0.035 0.789 0.141 1.146 0.51 0.207 0.42-0.559 0.325-0.829-0.227-0.224-0.375-0.315-0.466-0.316zM18.898 12.374c-0.606 0.048-0.565 1.741 0.565 1.452l0.126 0.006c-0.396-0.591 0.235-0.348 0.136-0.844-1.017-0.062 0.222-0.654-0.53-0.523-0.112-0.071-0.211-0.097-0.298-0.091zM28.773 13.623c-0.104 1.293 1.968-0.259 1.375 1.341-0.157 0.465-0.263-0.213-0.387-0.305-0.725 0.762-1.075-0.426-0.988-1.037zM10.42 15.624c0.063 0.013-0.086 0.368 0.156 0.284-0.736 0.24 0.75 0.828-0.299 1.011-0.94-0.556-1.226 1.050-1.945 1.332 0.246 1.069-0.8 0.526-1.003 0.978v-0.001l-0.036 0.094c-0.381-0.37 0.045-1.238-0.342-1.886-0.633-1.446 0.811-2.066 1.953-1.515-0.87 0.406 0.546 0.698-0.38 0.895 0.945 0.718 0.685-1.046 1.621-0.926 0.173-0.209 0.246-0.273 0.275-0.268zM29.034 16.672c0.484 0.343-0.754 1.722-0.716 2.5-0.36 0.604-0.499-0.755-0.517-0.942 0.79-0.166 0.497-1.171 1.232-1.559zM24.139 17.267c0.58 0.082 1.016 1.732 0.104 2.133-0.128-0.065-0.354 0.379-0.164-0.044 0.591-0.298-0.419-1.349-0.058-2.084 0.022-0.005 0.047-0.008 0.072-0.008 0.016 0 0.032 0.001 0.047 0.003l-0.002-0zM18.268 18.566c-0.123 0.011-0.277 0.060-0.468 0.159-1.038-0.129-0.715 0.685-0.448 1.027 1.060 0.543 1.772-1.261 0.915-1.187zM29.524 18.803c0.974 0.853-0.665 2.658-1.369 3.562 0.036 0.729-1.59 2.259-1.869 1.268-1.019 0.278-2.072 1.901-3.21 2.557-0.461 0.169 0.572-0.49 0.542-0.564 0.377-1.060 0.581-2.085 1.397-2.946 0.383-0.62-0.141 1.745 0.717 0.728-1.184-0.87 2.031-1.552 0.557-0.314 0.708 0.834 0.757-0.932 0.835-1.506-0.49 0.318-2.405 0.267-0.797 0.060 0.701-0.696 2.002 0.734 2.462-0.76-0.022-1.196 0.957-1.215 0.735-2.084z"></path>
</svg>
