<!-- Generated by IcoMoon.io -->
<svg version="1.1" xmlns="http://www.w3.org/2000/svg" width="32" height="32" viewBox="0 0 32 32">
<title>grocery-trolley-svgrepo-com</title>
<path d="M1.27 6.552h4.879l4.951 15.77c0.166 0.529 0.657 0.889 1.211 0.889h15.458c0.701 0 1.27-0.568 1.27-1.27s-0.568-1.27-1.27-1.27h-14.526l-0.991-3.156h15.866c1.112 0 2.131-0.819 2.369-1.906l1.462-6.668c0.135-0.616-0.004-1.239-0.383-1.71s-0.957-0.74-1.588-0.74h-21.187l-0.5-1.59c-0.166-0.529-0.657-0.889-1.211-0.889h-5.812c-0.701 0-1.27 0.568-1.27 1.269s0.568 1.269 1.27 1.269zM28.041 14.978l-16.503 0.004c-0.016-0.005-0.041-0.022-0.051-0.022-0.003 0-0.005 0.002-0.004 0.007l-0.556-1.693h17.484l-0.37 1.704zM9.589 9.032h19.743l-0.37 1.703h-18.87l-0.56-1.703h0.056z"></path>
<path d="M15.799 26.185c0 0.995-0.807 1.802-1.802 1.802s-1.802-0.807-1.802-1.802c0-0.995 0.807-1.802 1.802-1.802s1.802 0.807 1.802 1.802z"></path>
<path d="M26.957 26.185c0 0.995-0.807 1.802-1.802 1.802s-1.802-0.807-1.802-1.802c0-0.995 0.807-1.802 1.802-1.802s1.802 0.807 1.802 1.802z"></path>
</svg>
