<!-- Generated by IcoMoon.io -->
<svg version="1.1" xmlns="http://www.w3.org/2000/svg" width="32" height="32" viewBox="0 0 32 32">
<title>plant-svgrepo-com</title>
<path d="M9.364 26.767c1.771 0.525 3.63 0.687 5.465 0.476l9.634-1.106c0.571-0.091 1.153-0.091 1.723 0.001l3.012 0.482c1.012 0.162 2.002-0.527 2.164-1.539v-2.603c0-0.947-0.682-1.65-1.73-1.856l-4.494-0.643c-0.662-0.037-1.327-0.029-1.988 0.024l-9.718 1.24c-1.023 0.055-1.809 0.929-1.754 1.952 0.010 0.182 0.046 0.357 0.104 0.521l-8.743-2.694c-0.979-0.302-2.018 0.248-2.32 1.227s0.248 2.018 1.227 2.32l7.417 2.197z"></path>
<path d="M19.187 4.666c0 0-0.807 4.413-1.803 5.409s-2.61 0.996-3.606 0-0.996-2.61 0-3.606 5.409-1.803 5.409-1.803z"></path>
<path d="M4.143 10.122c0 0 4.43-3.060 6.12-3.060s3.060 1.37 3.060 3.060-1.37 3.060-3.060 3.060-6.12-3.060-6.12-3.060z"></path>
<path d="M11.679 23.196c-0.055-1.023 0.73-1.898 1.754-1.952l7.438-0.949c-0.317-1.125-1.35-1.95-2.576-1.95-0.101 0-0.2 0.006-0.297 0.017-0.381-1.015-1.359-1.738-2.507-1.738-0.918 0-1.728 0.462-2.21 1.166-0.476-0.74-1.307-1.23-2.252-1.23-1.219 0-2.248 0.816-2.571 1.931-0.273-0.094-0.566-0.146-0.871-0.146-1.479 0-2.677 1.199-2.677 2.677 0 0.19 0.020 0.39 0.058 0.595l6.817 2.1c-0.058-0.164-0.094-0.339-0.104-0.521z"></path>
<path d="M29.756 19.997c-0.011-0.002-0.022-0.004-0.033-0.006l-4.494-0.643c-0.018-0.003-0.036-0.004-0.054-0.005-0.689-0.039-1.387-0.030-2.075 0.026-0.010 0.001-0.019 0.002-0.029 0.003l-1.783 0.227c-0.528-1.106-1.643-1.851-2.89-1.89-0.576-1.046-1.692-1.723-2.907-1.723-0.516 0-1.017 0.12-1.466 0.342v-5.276c0.482 0.27 1.020 0.406 1.557 0.406 0.816 0 1.632-0.311 2.254-0.932 1.081-1.082 1.839-4.975 1.979-5.745 0.038-0.206-0.028-0.417-0.176-0.565s-0.36-0.214-0.565-0.176c-0.77 0.141-4.663 0.898-5.745 1.979-0.354 0.354-0.607 0.771-0.759 1.216-0.633-0.506-1.434-0.81-2.305-0.81-1.836 0-6.012 2.848-6.482 3.173-0.172 0.119-0.275 0.315-0.275 0.524s0.103 0.405 0.275 0.524c0.47 0.325 4.646 3.173 6.482 3.173 0.956 0 1.829-0.365 2.486-0.963v3.548c-0.51-0.31-1.102-0.482-1.721-0.482-1.259 0-2.402 0.725-2.958 1.82-0.16-0.024-0.322-0.035-0.484-0.035-1.732 0-3.158 1.336-3.302 3.032l-1.056-0.325c-1.314-0.404-2.712 0.335-3.117 1.649s0.335 2.712 1.649 3.117c0.002 0.001 0.004 0.001 0.007 0.002l7.417 2.197c1.332 0.395 2.695 0.593 4.069 0.593 0.548 0 1.099-0.032 1.649-0.095l9.634-1.106c0.009-0.001 0.018-0.002 0.028-0.004 0.505-0.080 1.018-0.080 1.523 0.001l3.013 0.482c0.137 0.022 0.272 0.032 0.406 0.032 1.218-0 2.292-0.875 2.488-2.1 0.005-0.033 0.008-0.067 0.008-0.101v-2.603c-0-1.239-0.881-2.213-2.244-2.481zM14.229 6.92c0.492-0.492 2.481-1.074 4.143-1.439-0.365 1.663-0.946 3.651-1.439 4.143-0.588 0.588-1.465 0.712-2.176 0.373l0.824-0.824c0.249-0.249 0.249-0.653 0-0.902s-0.652-0.249-0.902 0l-0.824 0.824c-0.339-0.711-0.214-1.589 0.373-2.176zM10.263 12.544c-0.93 0-3.28-1.326-4.972-2.422 1.692-1.096 4.042-2.422 4.972-2.422 1.115 0 2.056 0.758 2.337 1.785h-1.572c-0.352 0-0.637 0.285-0.637 0.637s0.285 0.637 0.637 0.637h1.572c-0.281 1.027-1.222 1.785-2.337 1.785zM5.548 21.129c-0.002-0.036-0.003-0.072-0.003-0.107 0-1.125 0.915-2.040 2.040-2.040 0.226 0 0.45 0.037 0.664 0.111 0.165 0.057 0.346 0.043 0.501-0.037s0.27-0.221 0.319-0.388c0.251-0.866 1.056-1.471 1.959-1.471 0.696 0 1.338 0.351 1.716 0.938 0.116 0.18 0.313 0.289 0.527 0.292s0.414-0.101 0.535-0.277c0.381-0.557 1.011-0.889 1.684-0.889 0.846 0 1.614 0.532 1.911 1.324 0.102 0.273 0.378 0.442 0.667 0.41 0.078-0.009 0.154-0.013 0.227-0.013 0.642 0 1.234 0.305 1.613 0.792l-6.534 0.834c-0.123 0.008-0.244 0.024-0.362 0.049-0.513 0.108-0.977 0.375-1.334 0.773-0.31 0.345-0.513 0.759-0.596 1.203-0.012 0.063-0.021 0.128-0.028 0.192l-5.505-1.696zM30.725 25.025c-0.127 0.632-0.769 1.071-1.425 0.966l-3.012-0.482c-0.634-0.101-1.276-0.102-1.91-0.003l-9.621 1.104c-1.76 0.202-3.513 0.049-5.211-0.454l-7.413-2.196c-0.64-0.199-1-0.881-0.803-1.522s0.881-1.003 1.523-0.806l8.484 2.614c0.423 0.78 1.248 1.306 2.191 1.306 0.045 0 0.090-0.001 0.135-0.004 0.015-0.001 0.031-0.002 0.046-0.004l3.897-0.496c0.349-0.044 0.596-0.364 0.552-0.713s-0.364-0.597-0.713-0.552l-3.872 0.492c-0.655 0.024-1.204-0.472-1.257-1.116-0.017-0.324 0.093-0.636 0.31-0.878s0.516-0.385 0.841-0.402c0.016-0.001 0.031-0.002 0.047-0.004l9.703-1.238c0.616-0.049 1.241-0.057 1.859-0.024l4.449 0.637c0.752 0.153 1.2 0.611 1.2 1.227v2.547h0z"></path>
<path d="M20.043 23.454l-0.866 0.11c-0.349 0.044-0.596 0.364-0.552 0.713 0.041 0.322 0.315 0.557 0.632 0.557 0.027 0 0.054-0.002 0.081-0.005l0.866-0.11c0.349-0.044 0.596-0.364 0.552-0.713s-0.364-0.597-0.713-0.552z"></path>
<path d="M8.924 9.484h-0.51c-0.352 0-0.637 0.285-0.637 0.637s0.285 0.637 0.637 0.637h0.51c0.352 0 0.637-0.285 0.637-0.637s-0.285-0.637-0.637-0.637z"></path>
</svg>
