<svg aria-hidden="true" style="position: absolute; width: 0; height: 0; overflow: hidden;" version="1.1" xmlns="http://www.w3.org/2000/svg" xmlns:xlink="http://www.w3.org/1999/xlink">
<defs>
<symbol id="icon-computer-mouse-svgrepo-com" viewBox="0 0 32 32">
<path d="M17.045-0h-2.455c-5.073 0-9.046 4.134-9.046 9.411v13.176c0 5.278 3.974 9.412 9.046 9.412h2.455c5.189 0 9.41-4.222 9.41-9.412v-13.176c0-5.189-4.221-9.411-9.41-9.411zM15.905 4.932h0.19c0.297 0 0.538 0.242 0.538 0.538v3.833c0 0.297-0.242 0.538-0.538 0.538h-0.19c-0.297 0-0.538-0.242-0.538-0.538v-3.833c0-0.297 0.242-0.538 0.538-0.538zM25.225 22.588c0 4.511-3.669 8.182-8.18 8.182h-2.455c-4.383 0-7.816-3.594-7.816-8.182v-13.176c0-4.587 3.433-8.181 7.816-8.181h0.786v2.551c-0.718 0.225-1.241 0.897-1.241 1.689v3.833c0 0.792 0.523 1.463 1.241 1.689v3.166c0 0.34 0.276 0.615 0.615 0.615s0.615-0.276 0.615-0.615v-3.162c0.726-0.22 1.256-0.896 1.256-1.693v-3.833c0-0.797-0.53-1.473-1.256-1.693v-2.547h0.438c4.51 0 8.18 3.67 8.18 8.181v13.176z"></path>
</symbol>
<symbol id="icon-grocery-trolley-svgrepo-com" viewBox="0 0 32 32">
<path d="M1.27 6.552h4.879l4.951 15.77c0.166 0.529 0.657 0.889 1.211 0.889h15.458c0.701 0 1.27-0.568 1.27-1.27s-0.568-1.27-1.27-1.27h-14.526l-0.991-3.156h15.866c1.112 0 2.131-0.819 2.369-1.906l1.462-6.668c0.135-0.616-0.004-1.239-0.383-1.71s-0.957-0.74-1.588-0.74h-21.187l-0.5-1.59c-0.166-0.529-0.657-0.889-1.211-0.889h-5.812c-0.701 0-1.27 0.568-1.27 1.269s0.568 1.269 1.27 1.269zM28.041 14.978l-16.503 0.004c-0.016-0.005-0.041-0.022-0.051-0.022-0.003 0-0.005 0.002-0.004 0.007l-0.556-1.693h17.484l-0.37 1.704zM9.589 9.032h19.743l-0.37 1.703h-18.87l-0.56-1.703h0.056z"></path>
<path d="M15.799 26.185c0 0.995-0.807 1.802-1.802 1.802s-1.802-0.807-1.802-1.802c0-0.995 0.807-1.802 1.802-1.802s1.802 0.807 1.802 1.802z"></path>
<path d="M26.957 26.185c0 0.995-0.807 1.802-1.802 1.802s-1.802-0.807-1.802-1.802c0-0.995 0.807-1.802 1.802-1.802s1.802 0.807 1.802 1.802z"></path>
</symbol>
<symbol id="icon-plant-svgrepo-com" viewBox="0 0 32 32">
<path d="M9.364 26.767c1.771 0.525 3.63 0.687 5.465 0.476l9.634-1.106c0.571-0.091 1.153-0.091 1.723 0.001l3.012 0.482c1.012 0.162 2.002-0.527 2.164-1.539v-2.603c0-0.947-0.682-1.65-1.73-1.856l-4.494-0.643c-0.662-0.037-1.327-0.029-1.988 0.024l-9.718 1.24c-1.023 0.055-1.809 0.929-1.754 1.952 0.010 0.182 0.046 0.357 0.104 0.521l-8.743-2.694c-0.979-0.302-2.018 0.248-2.32 1.227s0.248 2.018 1.227 2.32l7.417 2.197z"></path>
<path d="M19.187 4.666c0 0-0.807 4.413-1.803 5.409s-2.61 0.996-3.606 0-0.996-2.61 0-3.606 5.409-1.803 5.409-1.803z"></path>
<path d="M4.143 10.122c0 0 4.43-3.060 6.12-3.060s3.060 1.37 3.060 3.060-1.37 3.060-3.060 3.060-6.12-3.060-6.12-3.060z"></path>
<path d="M11.679 23.196c-0.055-1.023 0.73-1.898 1.754-1.952l7.438-0.949c-0.317-1.125-1.35-1.95-2.576-1.95-0.101 0-0.2 0.006-0.297 0.017-0.381-1.015-1.359-1.738-2.507-1.738-0.918 0-1.728 0.462-2.21 1.166-0.476-0.74-1.307-1.23-2.252-1.23-1.219 0-2.248 0.816-2.571 1.931-0.273-0.094-0.566-0.146-0.871-0.146-1.479 0-2.677 1.199-2.677 2.677 0 0.19 0.020 0.39 0.058 0.595l6.817 2.1c-0.058-0.164-0.094-0.339-0.104-0.521z"></path>
<path d="M29.756 19.997c-0.011-0.002-0.022-0.004-0.033-0.006l-4.494-0.643c-0.018-0.003-0.036-0.004-0.054-0.005-0.689-0.039-1.387-0.030-2.075 0.026-0.010 0.001-0.019 0.002-0.029 0.003l-1.783 0.227c-0.528-1.106-1.643-1.851-2.89-1.89-0.576-1.046-1.692-1.723-2.907-1.723-0.516 0-1.017 0.12-1.466 0.342v-5.276c0.482 0.27 1.020 0.406 1.557 0.406 0.816 0 1.632-0.311 2.254-0.932 1.081-1.082 1.839-4.975 1.979-5.745 0.038-0.206-0.028-0.417-0.176-0.565s-0.36-0.214-0.565-0.176c-0.77 0.141-4.663 0.898-5.745 1.979-0.354 0.354-0.607 0.771-0.759 1.216-0.633-0.506-1.434-0.81-2.305-0.81-1.836 0-6.012 2.848-6.482 3.173-0.172 0.119-0.275 0.315-0.275 0.524s0.103 0.405 0.275 0.524c0.47 0.325 4.646 3.173 6.482 3.173 0.956 0 1.829-0.365 2.486-0.963v3.548c-0.51-0.31-1.102-0.482-1.721-0.482-1.259 0-2.402 0.725-2.958 1.82-0.16-0.024-0.322-0.035-0.484-0.035-1.732 0-3.158 1.336-3.302 3.032l-1.056-0.325c-1.314-0.404-2.712 0.335-3.117 1.649s0.335 2.712 1.649 3.117c0.002 0.001 0.004 0.001 0.007 0.002l7.417 2.197c1.332 0.395 2.695 0.593 4.069 0.593 0.548 0 1.099-0.032 1.649-0.095l9.634-1.106c0.009-0.001 0.018-0.002 0.028-0.004 0.505-0.080 1.018-0.080 1.523 0.001l3.013 0.482c0.137 0.022 0.272 0.032 0.406 0.032 1.218-0 2.292-0.875 2.488-2.1 0.005-0.033 0.008-0.067 0.008-0.101v-2.603c-0-1.239-0.881-2.213-2.244-2.481zM14.229 6.92c0.492-0.492 2.481-1.074 4.143-1.439-0.365 1.663-0.946 3.651-1.439 4.143-0.588 0.588-1.465 0.712-2.176 0.373l0.824-0.824c0.249-0.249 0.249-0.653 0-0.902s-0.652-0.249-0.902 0l-0.824 0.824c-0.339-0.711-0.214-1.589 0.373-2.176zM10.263 12.544c-0.93 0-3.28-1.326-4.972-2.422 1.692-1.096 4.042-2.422 4.972-2.422 1.115 0 2.056 0.758 2.337 1.785h-1.572c-0.352 0-0.637 0.285-0.637 0.637s0.285 0.637 0.637 0.637h1.572c-0.281 1.027-1.222 1.785-2.337 1.785zM5.548 21.129c-0.002-0.036-0.003-0.072-0.003-0.107 0-1.125 0.915-2.040 2.040-2.040 0.226 0 0.45 0.037 0.664 0.111 0.165 0.057 0.346 0.043 0.501-0.037s0.27-0.221 0.319-0.388c0.251-0.866 1.056-1.471 1.959-1.471 0.696 0 1.338 0.351 1.716 0.938 0.116 0.18 0.313 0.289 0.527 0.292s0.414-0.101 0.535-0.277c0.381-0.557 1.011-0.889 1.684-0.889 0.846 0 1.614 0.532 1.911 1.324 0.102 0.273 0.378 0.442 0.667 0.41 0.078-0.009 0.154-0.013 0.227-0.013 0.642 0 1.234 0.305 1.613 0.792l-6.534 0.834c-0.123 0.008-0.244 0.024-0.362 0.049-0.513 0.108-0.977 0.375-1.334 0.773-0.31 0.345-0.513 0.759-0.596 1.203-0.012 0.063-0.021 0.128-0.028 0.192l-5.505-1.696zM30.725 25.025c-0.127 0.632-0.769 1.071-1.425 0.966l-3.012-0.482c-0.634-0.101-1.276-0.102-1.91-0.003l-9.621 1.104c-1.76 0.202-3.513 0.049-5.211-0.454l-7.413-2.196c-0.64-0.199-1-0.881-0.803-1.522s0.881-1.003 1.523-0.806l8.484 2.614c0.423 0.78 1.248 1.306 2.191 1.306 0.045 0 0.090-0.001 0.135-0.004 0.015-0.001 0.031-0.002 0.046-0.004l3.897-0.496c0.349-0.044 0.596-0.364 0.552-0.713s-0.364-0.597-0.713-0.552l-3.872 0.492c-0.655 0.024-1.204-0.472-1.257-1.116-0.017-0.324 0.093-0.636 0.31-0.878s0.516-0.385 0.841-0.402c0.016-0.001 0.031-0.002 0.047-0.004l9.703-1.238c0.616-0.049 1.241-0.057 1.859-0.024l4.449 0.637c0.752 0.153 1.2 0.611 1.2 1.227v2.547h0z"></path>
<path d="M20.043 23.454l-0.866 0.11c-0.349 0.044-0.596 0.364-0.552 0.713 0.041 0.322 0.315 0.557 0.632 0.557 0.027 0 0.054-0.002 0.081-0.005l0.866-0.11c0.349-0.044 0.596-0.364 0.552-0.713s-0.364-0.597-0.713-0.552z"></path>
<path d="M8.924 9.484h-0.51c-0.352 0-0.637 0.285-0.637 0.637s0.285 0.637 0.637 0.637h0.51c0.352 0 0.637-0.285 0.637-0.637s-0.285-0.637-0.637-0.637z"></path>
</symbol>
<symbol id="icon-carrot-svgrepo-com" viewBox="0 0 32 32">
<path d="M20.367 11.097c-0.923-0.725-4.177-2.848-7.272 0.247-0.109 0.109-0.225 0.232-0.337 0.348l0.301 0.082c0.062 0.009 2.614 0.477 3.852 1.714 0.208 0.209 0.208 0.546 0 0.754-0.105 0.105-0.241 0.156-0.378 0.156s-0.273-0.052-0.377-0.156c-0.833-0.833-2.687-1.314-3.331-1.429l-0.89-0.241c-0.629 0.698-1.302 1.499-2.009 2.394l0.319 0.069c0.733 0.181 2.509 0.697 3.466 1.652 0.208 0.209 0.208 0.546 0 0.754-0.105 0.105-0.241 0.156-0.378 0.156s-0.273-0.052-0.377-0.156c-0.626-0.626-1.935-1.117-2.952-1.367l-0.801-0.174c-0.571 0.753-1.159 1.565-1.76 2.432l0.364 0.11c0.683 0.212 1.938 0.681 2.702 1.445 0.208 0.209 0.208 0.546 0 0.754-0.104 0.105-0.241 0.156-0.378 0.156s-0.273-0.052-0.377-0.156c-0.434-0.434-1.279-0.875-2.261-1.18l-0.681-0.207c-0.622 0.926-1.253 1.91-1.889 2.948l0.419 0.183c0.603 0.252 1.503 0.773 1.966 1.236 0.208 0.209 0.208 0.546 0 0.754-0.104 0.105-0.241 0.156-0.378 0.156s-0.273-0.052-0.377-0.156c-0.337-0.337-1.115-0.794-1.631-1.009l-0.559-0.244c-1.453 2.437-2.916 5.152-4.315 8.116-0.096 0.203-0.054 0.445 0.105 0.604 0.102 0.102 0.239 0.156 0.378 0.156 0.077 0 0.155-0.017 0.227-0.051 9.565-4.514 16.549-9.697 19.895-13.044 3.094-3.094 0.972-6.348 0.247-7.272-0.156-0.199-0.336-0.38-0.536-0.536z"></path>
<path d="M31.133 5.592c-0.069-0.069-0.143-0.134-0.222-0.197 0.454-1.090 0.22-2.382-0.637-3.239-0.899-0.899-2.241-1.103-3.348-0.579-0.137-0.263-0.311-0.503-0.518-0.71-1.156-1.155-3.036-1.155-4.191 0-0.817 0.817-1.059 2.026-0.69 3.076-0.549 0.117-1.055 0.388-1.458 0.79-1.156 1.156-1.155 3.036 0 4.191 0.406 0.406 0.916 0.675 1.461 0.792l1.937-1.937v-1.379c0-0.295 0.239-0.533 0.533-0.533s0.533 0.238 0.533 0.533v0.313l1.067-1.067v-1.379c0-0.295 0.239-0.533 0.533-0.533s0.533 0.238 0.533 0.533v1.067h0.533c0.295 0 0.533 0.238 0.533 0.533s-0.238 0.533-0.533 0.533h-0.845l-1.067 1.067h0.845c0.295 0 0.533 0.238 0.533 0.533s-0.238 0.533-0.533 0.533h-1.912l-1.932 1.932c0.116 0.547 0.379 1.059 0.786 1.467 0.578 0.578 1.337 0.867 2.096 0.867s1.518-0.289 2.096-0.867c0.402-0.402 0.673-0.908 0.79-1.458 1.051 0.369 2.259 0.126 3.076-0.69 1.155-1.155 1.156-3.035 0-4.191z"></path>
</symbol>
<symbol id="icon-earth-north-svgrepo-com" viewBox="0 0 32 32">
<path d="M16 0c-8.831 0-16 7.169-16 16s7.169 16 16 16c8.815 0 15.972-7.144 15.997-15.953 0.002-0.014 0.002-0.031 0.003-0.047v-0c0-0.015-0.001-0.030-0.002-0.044l0 0.002c-0.023-8.811-7.181-15.957-15.998-15.957zM16 0.96c0.291 0 0.579 0.009 0.865 0.025l-0.040-0.002c0.143 0.132-0.117 0.466 0.13 0.968 1.68-0.038-0.151 0.88-0.916 0.615-0.834-0.569-1.435 0.763-1.867 0.328 1.071-0.408-0.045-1.223 0.645-1.564-0.577 0.126-1.673 0.803-1.542 1.513-0.602 0.591-2.245 1.115-1.585 1.959-1.042 0.050-0.703 0.9-1.609 1.021-0.802 0.746-0.182-0.212-0.602-0.576-0.306-0.192-2.177 1.6-1.323-0.044-0.111-0.76 2.485-2.473 1.355-1.887-0.888 0.802-2.032 1.79-1.984 3.006-0.715-0.335 0.099 0.761-0.184 1.179-0.302 1.372-1.812 1.919-2.787 2.705 1.152-0.187-0.551 0.422-0.768 1.069-1.113 0.764-2.511 1.417-2.594 3.068-0.054 0.119-0.116 0.28-0.172 0.445l-0.013 0.044c0.596-7.765 7.072-13.872 14.991-13.872zM17.521 1.036c0.169 0.017 0.335 0.040 0.502 0.063-0.215 0.049-0.407 0.143-0.549 0.32-0.050-0.163-0.025-0.286 0.047-0.383zM14.585 5.059c0.698 0.009 1.518 0.156 1.986 0.898-1.486-0.182-0.439 0.563 0.428 0.475-0.709-0.76 0.717-1.52 0.793-0.815-0.035 0.715 1.88 0.613 0.86 1.413 0.396 0.642-1.042 2.565 0.477 1.761-0.246-1.266 0.432-0.637 1.338-0.198 0.637 0.178 1.191 0.41 1 0.785 0.498-0.189-0.034 0.914 1.216 0.714 0.76 0.956-1.505 1.314-1.897-0.079-1.017-0.196 0.949 1.917 1.691 1.555 0.6-1.141 0.692 0.116 0.878 0.751-0.966 0.46 0.628 0.651 0.151 0.866-1.475 0.272-2.578 1.392-2.228 2.973 0.767 0.127 0.148 2.076 0.625 2.974 0.626 1.427 1.492-1.297 1.113 0.388 0.646 0.722 0.099 1.255-0.003 2.079-0.257 0.154-1.537-0.659-1.7-1.142-0.229-0.693-0.44-0.206-0.706 0.114-0.627 0.439 0.695 1.031-0.292 1.519-0.278 1.11 1.098 1.080 0.921-0.038 0.259-0.223 0.258 1.823 0.977 0.517 1.804-1.228-1.409 1.094 0.211 0.859 1.133 0.378 0.155 1.268-0.685 1.308-0.452 0.263-0.292 2.309 0.683 1.586-0.036 0.576-0.658 2.058-1.312 2.108-0.542-0.193 0.133 0.37-0.387 0.604-0.343 0.32-0.615 1.018-0.494 1.402-1.266 0.384-2.721 0.606-4.227 0.606v0c-0.006 0-0.014 0-0.021 0-3.051 0-5.888-0.912-8.254-2.479l0.056 0.035c-0.336-0.426-0.447-0.444-0.393-0.266-0.443-0.311-0.824-0.609-1.19-0.924l0.020 0.017c0.038-0.056-0.271-0.453-0.384-0.554-0.289-0.464-1.817-1.761-1.25-1.757 0.823 1.787 0.369-0.336-0.379-0.804 0.11 0.808-0.211 0.42-0.541-0.179-1.21-1.123-0.264-0.085 0.173 0.717-0.931-1.263-1.684-2.728-2.183-4.307l-0.029-0.106c0.039-0.085 0.084-0.157 0.137-0.224l-0.002 0.002c0.762 1.315 1.843 2.064 1.86 3.704 0.622 1.008 0.371-0.501 0.735-0.592 0.943 0.816 1.197-0.040 2.068-0.068 0.796 0.755 0.519-0.358 1.211-0.044 0.322 0.463 1.836 1.258 1.97 0.342-0.381 0.121-1.106-0.476-0.578-1.037-0.744-0.925 0.151-0.039 0.447 0.375-0.222-0.58 0.71-0.007 1.012-0.138-1.617 0.364 0.556 2.265 0.797 1.212-0.446-0.72-0.192-1.118-0.191-1.99-1.011-0.481 0.247-3.362-1.127-2.383-0.076-0.582 0.093-1.796-0.499-2.039 0.438-0.781 0.611 0.998 1.048 1.419 0.547 0.38 0.66-1.044 1.368-1.016 0.012-0.75-0.164-1.386 0.047-2.218 0.132-0.953-0.65-2.876-1.675-1.344-0.537 1.743-0.332-1.137 0.782-0.684 0.274-1.007 0.539 1.322 1.477 0.229 0.797-0.555 0.218 0.114 0.504 0.637 1.005 0.608 0.203 1.928 0.087 2.726-0.321 1.178-0.58 3.080 0.732 3.727 0.611-0.965 1.054-1.818 2.016-2.419 1.352-0.394 1.4-1.471 1.412-2.58 0.179-0.659-0.255-1.268-0.304-1.923 0.555-1.033-1.173-1.768-2.077-1.233-0.211-0.755-2.254-1.53-2.369-0.615 0.114-0.674-0.47-0.723-1.068-0.326 0.336-0.306-0.417-0.212-0.108-0.495 0.478 0.428 1.234-0.085 0.281-0.506-0.59-0.77-1.402 0.694-0.792 1.181 0.835 0.873-0.409 0.382-0.759 0.889 0.342 0.625-1.132 0.67-0.47 0.367 0.134-0.52 1.519-0.957 0.604-1.498 0.671-0.658 0.569-1.876-0.597-1.224 0.335 0.336-0.834 1.293-0.575 0.634 0.74-0.872-0.193-1.937 0.802-2.668 0.635-0.46 1.936-2.36 0.719-2.312 0.067-1.19 2.543-0.32 3.392-1.221 0.188-0.011 0.408-0.024 0.64-0.020zM19.039 10.236c-0.274-0.004-0.035 0.789 0.141 1.146 0.51 0.207 0.42-0.559 0.325-0.829-0.227-0.224-0.375-0.315-0.466-0.316zM18.898 12.374c-0.606 0.048-0.565 1.741 0.565 1.452l0.126 0.006c-0.396-0.591 0.235-0.348 0.136-0.844-1.017-0.062 0.222-0.654-0.53-0.523-0.112-0.071-0.211-0.097-0.298-0.091zM28.773 13.623c-0.104 1.293 1.968-0.259 1.375 1.341-0.157 0.465-0.263-0.213-0.387-0.305-0.725 0.762-1.075-0.426-0.988-1.037zM10.42 15.624c0.063 0.013-0.086 0.368 0.156 0.284-0.736 0.24 0.75 0.828-0.299 1.011-0.94-0.556-1.226 1.050-1.945 1.332 0.246 1.069-0.8 0.526-1.003 0.978v-0.001l-0.036 0.094c-0.381-0.37 0.045-1.238-0.342-1.886-0.633-1.446 0.811-2.066 1.953-1.515-0.87 0.406 0.546 0.698-0.38 0.895 0.945 0.718 0.685-1.046 1.621-0.926 0.173-0.209 0.246-0.273 0.275-0.268zM29.034 16.672c0.484 0.343-0.754 1.722-0.716 2.5-0.36 0.604-0.499-0.755-0.517-0.942 0.79-0.166 0.497-1.171 1.232-1.559zM24.139 17.267c0.58 0.082 1.016 1.732 0.104 2.133-0.128-0.065-0.354 0.379-0.164-0.044 0.591-0.298-0.419-1.349-0.058-2.084 0.022-0.005 0.047-0.008 0.072-0.008 0.016 0 0.032 0.001 0.047 0.003l-0.002-0zM18.268 18.566c-0.123 0.011-0.277 0.060-0.468 0.159-1.038-0.129-0.715 0.685-0.448 1.027 1.060 0.543 1.772-1.261 0.915-1.187zM29.524 18.803c0.974 0.853-0.665 2.658-1.369 3.562 0.036 0.729-1.59 2.259-1.869 1.268-1.019 0.278-2.072 1.901-3.21 2.557-0.461 0.169 0.572-0.49 0.542-0.564 0.377-1.060 0.581-2.085 1.397-2.946 0.383-0.62-0.141 1.745 0.717 0.728-1.184-0.87 2.031-1.552 0.557-0.314 0.708 0.834 0.757-0.932 0.835-1.506-0.49 0.318-2.405 0.267-0.797 0.060 0.701-0.696 2.002 0.734 2.462-0.76-0.022-1.196 0.957-1.215 0.735-2.084z"></path>
</symbol>
</defs>
</svg>
