<svg width="30" height="30" viewBox="0 0 30 30" fill="none" xmlns="http://www.w3.org/2000/svg">
<path d="M0.5 6C0.5 2.96243 2.96243 0.5 6 0.5H24C27.0376 0.5 29.5 2.96243 29.5 6V24C29.5 27.0376 27.0376 29.5 24 29.5H6C2.96243 29.5 0.5 27.0376 0.5 24V6Z" fill="white" stroke="#E4E4E4"/>
<mask id="mask0_0_151" style="mask-type:alpha" maskUnits="userSpaceOnUse" x="0" y="0" width="30" height="30">
<path d="M0.5 6C0.5 2.96243 2.96243 0.5 6 0.5H24C27.0376 0.5 29.5 2.96243 29.5 6V24C29.5 27.0376 27.0376 29.5 24 29.5H6C2.96243 29.5 0.5 27.0376 0.5 24V6Z" fill="white" stroke="white"/>
</mask>
<g mask="url(#mask0_0_151)">
</g>
<path fill-rule="evenodd" clip-rule="evenodd" d="M11.0002 19.6667C11.0002 20.4 11.6002 21 12.3335 21H17.6668C18.4002 21 19.0002 20.4 19.0002 19.6667V11.6667H11.0002V19.6667ZM19.6668 9.66667H17.3335L16.6668 9H13.3335L12.6668 9.66667H10.3335V11H19.6668V9.66667Z" fill="#969696"/>
</svg>
