<svg aria-hidden="true" style="position: absolute; width: 0; height: 0; overflow: hidden;" version="1.1" xmlns="http://www.w3.org/2000/svg" xmlns:xlink="http://www.w3.org/1999/xlink">
<defs>
<symbol id="icon-Arrow-1" viewBox="0 0 32 32">
<path d="M31.704 16.715c0.395-0.395 0.395-1.035 0-1.429l-6.431-6.431c-0.395-0.395-1.035-0.395-1.429 0s-0.395 1.035 0 1.429l5.716 5.717-5.716 5.716c-0.395 0.395-0.395 1.035 0 1.429s1.035 0.395 1.429 0l6.431-6.431zM0 17.011h30.989v-2.021h-30.989v2.021z"></path>
</symbol>
<symbol id="icon-Icon-color" viewBox="0 0 32 32">
<path d="M24.662 22.143l7.11 7.12c0.318 0.353 0.302 0.894-0.036 1.228l-1.244 1.246c-0.167 0.168-0.394 0.263-0.631 0.263s-0.464-0.095-0.631-0.263l-7.11-7.12c-0.197-0.197-0.375-0.411-0.533-0.641l-1.333-1.78c-2.206 1.764-4.945 2.724-7.767 2.723-5.816 0.020-10.871-3.998-12.171-9.675s1.502-11.499 6.746-14.018 11.532-1.064 15.14 3.505c3.608 4.568 3.574 11.031-0.082 15.561l1.778 1.228c0.278 0.178 0.534 0.387 0.764 0.623zM3.599 12.46c0 4.915 3.979 8.9 8.887 8.9 2.357 0 4.618-0.938 6.284-2.607s2.603-3.933 2.603-6.293c0-4.915-3.979-8.9-8.887-8.9s-8.887 3.985-8.887 8.9z"></path>
</symbol>
</defs>
</svg>
