<svg xmlns="http://www.w3.org/2000/svg" xmlns:se="http://svg-edit.googlecode.com" xmlns:xlink="http://www.w3.org/1999/xlink" xmlns:dc="http://purl.org/dc/elements/1.1/" xmlns:cc="http://creativecommons.org/ns#" xmlns:rdf="http://www.w3.org/1999/02/22-rdf-syntax-ns#" xmlns:inkscape="http://www.inkscape.org/namespaces/inkscape" width="777" height="480" style="">
                                    <title>my vector image</title>
                                    <!-- Created with Vector Paint - http://www.vectorpaint.yaks.com/ https://chrome.google.com/webstore/detail/hnbpdiengicdefcjecjbnjnoifekhgdo -->
                                    <rect id="backgroundrect" width="100%" height="100%" x="0" y="0" fill="#FFFFFF" stroke="none"/>
                                <g style="" class="currentLayer"><title>Layer 1</title><path fill="#f0c41b" stroke="none" stroke-width="2" stroke-linejoin="round" stroke-dashoffset="" fill-rule="nonzero" marker-start="" marker-mid="" marker-end="" id="svg_1" d="M188.45618671537846,172.92958064625012 L188.45618671537846,172.92958064625012 C188.45618671537846,150.9668011163162 206.67339782104045,133.16244936527954 229.14545505460708,133.16244936527954 L247.6405967997423,133.16244936527954 L247.6405967997423,133.16244936527954 L336.41721627629494,133.16244936527954 L502.873335382264,133.16244936527954 C513.6648324461391,133.16244936527954 524.0142992110613,137.35218114354598 531.6450377770398,144.80997268203961 C539.2757241429356,152.26776422053322 543.5626385215476,162.3826912111996 543.5626385215476,172.92958064625012 L543.5626385215476,272.34741908208593 L543.5626385215476,272.34741908208593 L543.5626385215476,331.99810577013244 L543.5626385215476,331.99810577013244 C543.5626385215476,353.9608955334757 525.3454361158995,371.765237051103 502.87334408227775,371.765237051103 L336.41722497630866,371.765237051103 L247.64060549975605,371.765237051103 L229.14547245463461,371.765237051103 C206.67340652105423,371.765237051103 188.45619541539224,353.9608955334757 188.45619541539224,331.99810577013244 L188.45619541539224,331.99810577013244 L188.45619541539224,272.34741908208593 L188.45619541539224,272.34741908208593 L188.45618671537846,172.92958064625012 z" style="color: rgb(0, 0, 0);" class="" fill-opacity="1"/><path fill="#1a1aeb" fill-opacity="1" stroke="none" stroke-opacity="1" stroke-width="2" stroke-dasharray="none" stroke-linejoin="round" stroke-linecap="butt" stroke-dashoffset="" fill-rule="nonzero" opacity="1" marker-start="" marker-mid="" marker-end="" d="M414.57862091064453,315.0944080352783 C414.57862091064453,297.4148500242286 429.3465767117495,283.0944080352783 447.57862091064453,283.0944080352783 C465.81066510953957,283.0944080352783 480.57862091064453,297.4148500242286 480.57862091064453,315.0944080352783 C480.57862091064453,332.77396604632804 465.81066510953957,347.0944080352783 447.57862091064453,347.0944080352783 C429.3465767117495,347.0944080352783 414.57862091064453,332.77396604632804 414.57862091064453,315.0944080352783 z" class="" id="svg_14"/><path fill="#f9eab0" stroke="none" stroke-width="2" stroke-linejoin="round" stroke-dashoffset="" fill-rule="nonzero" marker-start="" marker-mid="" marker-end="" d="M326.3212546923995,263.0059889542723 L342.9312390541408,263.0059889542723 L342.9312390541408,263.0059889542723 C345.10719425981,263.0059889542723 346.8711502574964,265.27541551517857 346.8711502574964,268.07489366105864 C346.8711502574964,270.87437081067276 345.10719343801,273.14379637531994 342.9312390541408,273.14379637531994 L326.3212546923995,273.14379637531994 L326.3212546923995,273.14379637531994 C324.1453019521293,273.14379637531994 322.38134348904526,270.87437081067276 322.38134348904526,268.07489366105864 C322.38134348904526,265.2754145189178 324.1453019521293,263.0059889542723 326.3212546923995,263.0059889542723 z" style="color: rgb(249, 234, 176);" class="" id="svg_5"/><path fill="#f9eab0" stroke="none" stroke-width="2" stroke-linejoin="round" stroke-dashoffset="" fill-rule="nonzero" marker-start="" marker-mid="" marker-end="" d="M362.907926190946,263.0059923191647 L370.2901423031362,263.0059923191647 L370.2901423031362,263.0059923191647 C371.2572336157382,263.0059923191647 372.0412141483935,265.4277029219672 372.0412141483935,268.4150328602774 C372.0412141483935,271.4023617354698 371.25723325049364,273.82407127516177 370.2901423031362,273.82407127516177 L362.907926190946,273.82407127516177 L362.907926190946,273.82407127516177 C361.940835974077,273.82407127516177 361.1568543456892,271.4023617354698 361.1568543456892,268.4150328602774 C361.1568543456892,265.4277018588549 361.940835974077,263.0059923191647 362.907926190946,263.0059923191647 z" style="color: rgb(249, 234, 176);" class="" id="svg_10"/><path fill="#f9eab0" stroke="none" stroke-width="2" stroke-linejoin="round" stroke-dashoffset="" fill-rule="nonzero" marker-start="" marker-mid="" marker-end="" d="M291.7840605432324,263.0059923191647 L303.31877240209667,263.0059923191647 L303.31877240209667,263.0059923191647 C304.8298524710823,263.0059923191647 306.0548219666523,265.4277029219672 306.0548219666523,268.4150328602774 C306.0548219666523,271.4023617354698 304.8298519003878,273.82407127516177 303.31877240209667,273.82407127516177 L291.7840605432324,273.82407127516177 L291.7840605432324,273.82407127516177 C290.27298218632944,273.82407127516177 289.04801097867767,271.4023617354698 289.04801097867767,268.4150328602774 C289.04801097867767,265.4277018588549 290.27298218632944,263.0059923191647 291.7840605432324,263.0059923191647 z" style="color: rgb(249, 234, 176);" class="" id="svg_9"/><path fill="#f9eab0" stroke="none" stroke-width="2" stroke-linejoin="round" stroke-dashoffset="" fill-rule="nonzero" marker-start="" marker-mid="" marker-end="" d="M255.57295594627067,263.0059923191647 L272.1829361828775,263.0059923191647 L272.1829361828775,263.0059923191647 C274.3588908481424,263.0059923191647 276.12284640774556,265.4277029219672 276.12284640774556,268.4150328602774 C276.12284640774556,271.4023617354698 274.3588900263425,273.82407127516177 272.1829361828775,273.82407127516177 L255.57295594627067,273.82407127516177 L255.57295594627067,273.82407127516177 C253.39700374640415,273.82407127516177 251.63304572140396,271.4023617354698 251.63304572140396,268.4150328602774 C251.63304572140396,265.4277018588549 253.39700374640415,263.0059923191647 255.57295594627067,263.0059923191647 z" style="color: rgb(249, 234, 176);" class="" id="svg_8"/><path fill="#f9eab0" stroke="none" stroke-width="2" stroke-linejoin="round" stroke-dashoffset="" fill-rule="nonzero" marker-start="" marker-mid="" marker-end="" d="M320.5175149666146,231.03319027785778 L367.1501584660782,231.03319027785778 L367.1501584660782,231.03319027785778 C373.25916743122104,231.03319027785778 378.21148583185413,234.38344278535158 378.21148583185413,238.5161866420861 C378.21148583185413,242.64892902808367 373.2591651240128,245.99918006484103 367.1501584660782,245.99918006484103 L320.5175149666146,245.99918006484103 L320.5175149666146,245.99918006484103 C314.4085129230938,245.99918006484103 309.45618760083875,242.64892902808367 309.45618760083875,238.5161866420861 C309.45618760083875,234.3834413146131 314.4085129230938,231.03319027785778 320.5175149666146,231.03319027785778 z" style="color: rgb(249, 234, 176);" class="" id="svg_7"/><rect fill="#806f5e" stroke="none" stroke-width="2" stroke-linejoin="round" stroke-dashoffset="" fill-rule="nonzero" id="svg_2" x="188.3605499267578" y="174" width="355" height="44" style="color: rgb(240, 196, 27);" class="" fill-opacity="1"/><path fill="#f9eab0" stroke="none" stroke-width="2" stroke-linejoin="round" stroke-dashoffset="" fill-rule="nonzero" marker-start="" marker-mid="" marker-end="" id="svg_4" d="M229.13994767535485,231.14609768752575 L275.77259117481844,231.14609768752575 L275.77259117481844,231.14609768752575 C281.8816001399613,231.14609768752575 286.83391854059437,234.49635019501955 286.83391854059437,238.62909405175407 C286.83391854059437,242.76183643775164 281.881597832753,246.112087474509 275.77259117481844,246.112087474509 L229.13994767535485,246.112087474509 L229.13994767535485,246.112087474509 C223.03094563183404,246.112087474509 218.07862030957898,242.76183643775164 218.07862030957898,238.62909405175407 C218.07862030957898,234.49634872428106 223.03094563183404,231.14609768752575 229.13994767535485,231.14609768752575 z" style="color: rgb(249, 234, 176);" class=""/><path fill="#f9eab0" stroke="none" stroke-width="2" stroke-linejoin="round" stroke-dashoffset="" fill-rule="nonzero" marker-start="" marker-mid="" marker-end="" id="svg_3" d="M222.0520731841766,262.97260677247533 L230.35706605256965,262.97260677247533 L230.35706605256965,262.97260677247533 C231.44504374547165,262.97260677247533 232.32702181732873,265.5466015615192 232.32702181732873,268.7217834703183 C232.32702181732873,271.89696424914763 231.44504333457158,274.47095790822954 230.35706605256965,274.47095790822954 L222.0520731841766,274.47095790822954 L222.0520731841766,274.47095790822954 C220.9640967239742,274.47095790822954 220.0821174194182,271.89696424914763 220.0821174194182,268.7217834703183 C220.0821174194182,265.54660043155536 220.9640967239742,262.97260677247533 222.0520731841766,262.97260677247533 z" style="color: rgb(249, 234, 176);" class=""/><path fill="#eb1a1a" fill-opacity="1" stroke="none" stroke-opacity="1" stroke-width="2" stroke-dasharray="none" stroke-linejoin="round" stroke-linecap="butt" stroke-dashoffset="" fill-rule="nonzero" opacity="1" marker-start="" marker-mid="" marker-end="" d="M457.8911552429199,316.7551021575928 C457.8911552429199,299.07554414654305 472.6591110440249,284.7551021575928 490.8911552429199,284.7551021575928 C509.1231994418149,284.7551021575928 523.8911552429199,299.07554414654305 523.8911552429199,316.7551021575928 C523.8911552429199,334.4346601686425 509.1231994418149,348.7551021575928 490.8911552429199,348.7551021575928 C472.6591110440249,348.7551021575928 457.8911552429199,334.4346601686425 457.8911552429199,316.7551021575928 z" id="svg_6" class=""/></g></svg>