<svg xmlns="http://www.w3.org/2000/svg" xmlns:se="http://svg-edit.googlecode.com" xmlns:xlink="http://www.w3.org/1999/xlink" xmlns:dc="http://purl.org/dc/elements/1.1/" xmlns:cc="http://creativecommons.org/ns#" xmlns:rdf="http://www.w3.org/1999/02/22-rdf-syntax-ns#" xmlns:inkscape="http://www.inkscape.org/namespaces/inkscape" width="777" height="480" style="">                                    <title>my vector image</title>                                    <!-- Created with Vector Paint - http://www.vectorpaint.yaks.com/ https://chrome.google.com/webstore/detail/hnbpdiengicdefcjecjbnjnoifekhgdo -->                                    <rect id="backgroundrect" width="100%" height="100%" x="0" y="0" fill="#FFFFFF" stroke="none"/>                                <g class="currentLayer" style=""><title>Layer 1</title><path fill="#000000" stroke="#000000" stroke-width="2" stroke-linejoin="round" stroke-dashoffset="" fill-rule="nonzero" marker-start="" marker-mid="" marker-end="" id="svg_3" d="M81.62642596260855,43.69749798001736 L81.62642596260855,43.69749798001736 C81.67245059925855,43.69749798001736 81.70976095837995,43.66018763758189 81.70976095837995,43.614162984245965 L82.04309094659283,43.614162984245965 L82.04309094659283,43.614162984245965 C82.04309094659283,43.66018762089596 82.08040130571423,43.69749798001736 82.12642590899236,43.69749798001736 L82.12642590899236,44.03082798491617 L82.12642590899236,44.03082798491617 C82.08040128902829,44.03082798491617 82.04309094659283,44.06813829397977 82.04309094659283,44.114162947315705 L81.70976095837995,44.114162947315705 C81.70976095837995,44.06813827729384 81.67245059925855,44.03082798491617 81.62642596260855,44.03082798491617 L81.62642596260855,43.69749798001736 z" style="color: rgb(175, 128, 102);"/><path fill="#d8362a" stroke="none" stroke-width="2" stroke-linejoin="round" stroke-dashoffset="" fill-rule="nonzero" marker-start="" marker-mid="" marker-end="" id="svg_6" d="M203.47318,136.75345 L203.47318,136.75345 C203.47318,113.60897 223.62046,94.84666 248.47339,94.84666 L268.92804,94.84666 L268.92804,94.84666 L367.11032,94.84666 L551.20205,94.84666 C563.13688,94.84666 574.58285,99.26182 583.02205,107.12087 C591.46119,114.97993 596.20228,125.63909 596.20228,136.75345 L596.20228,241.52044 L596.20228,241.52044 L596.20228,304.38062 L596.20228,304.38062 C596.20228,327.52511 576.05502,346.28741 551.20207,346.28741 L367.11033,346.28741 L268.92805,346.28741 L248.4734,346.28741 C223.62048,346.28741 203.4732,327.52511 203.4732,304.38062 L203.4732,304.38062 L203.4732,241.52044 L203.4732,241.52044 L203.47318,136.75345 z" style="color: rgb(175, 128, 102);" class="" fill-opacity="1"/><path fill="#ffffff" stroke-width="2" stroke-linejoin="round" stroke-dashoffset="" fill-rule="nonzero" marker-start="" marker-mid="" marker-end="" id="svg_1" d="M359.03315733291146,266.87144546569965 L415.0331596324417,168.87144144152938 L471.0331619319903,266.87144546569965 L359.03315733291146,266.87144546569965 z" style="color: rgb(216, 54, 42);" class="" transform="rotate(90.2210922241211 415.0331420898437,217.87144470214844) "/></g></svg>