<svg xmlns="http://www.w3.org/2000/svg" xmlns:se="http://svg-edit.googlecode.com" xmlns:xlink="http://www.w3.org/1999/xlink" xmlns:dc="http://purl.org/dc/elements/1.1/" xmlns:cc="http://creativecommons.org/ns#" xmlns:rdf="http://www.w3.org/1999/02/22-rdf-syntax-ns#" xmlns:inkscape="http://www.inkscape.org/namespaces/inkscape" width="777" height="480" style="">                                    <title>my vector image</title>                                    <!-- Created with Vector Paint - http://www.vectorpaint.yaks.com/ https://chrome.google.com/webstore/detail/hnbpdiengicdefcjecjbnjnoifekhgdo -->                                    <rect id="backgroundrect" width="100%" height="100%" x="0" y="0" fill="#FFFFFF" stroke="none"/>                                <g class="currentLayer" style=""><title>Layer 1</title><rect fill="#000000" stroke="#000000" stroke-width="2" stroke-linejoin="round" stroke-dashoffset="" fill-rule="nonzero" id="svg_9" x="206" y="426" width="328.9999694824219" height="14" style="color: rgb(0, 0, 0);" class=""/><rect fill="#000000" stroke="#000000" stroke-width="2" stroke-linejoin="round" stroke-dashoffset="" fill-rule="nonzero" x="72.15357208251953" y="299.267333984375" width="204.16061401367188" height="10.994895935058594" style="color: rgb(0, 0, 0);" class="" id="svg_13" transform="rotate(68.40010833740234 174.23385620117188,304.7648010253906) "/><rect fill="#000000" stroke="#000000" stroke-width="2" stroke-linejoin="round" stroke-dashoffset="" fill-rule="nonzero" x="124.52080535888672" y="236.8197784423828" width="153.4667510986328" height="12.478072166442871" style="color: rgb(0, 0, 0);" class="" transform="rotate(30.12627410888672 201.25418090820344,243.05880737304685) " id="svg_17"/><rect fill="#000000" stroke="#000000" stroke-width="2" stroke-linejoin="round" stroke-dashoffset="" fill-rule="nonzero" x="323.5500793457031" y="193.29405212402344" width="186.4817657470703" height="12.478072166442871" style="color: rgb(0, 0, 0);" class="" transform="rotate(55.02166748046875 416.79098510742193,199.53308105468747) " id="svg_23"/><rect fill="#000000" stroke="#000000" stroke-width="2" stroke-linejoin="round" stroke-dashoffset="" fill-rule="nonzero" x="224.7150421142578" y="192.6264190673828" width="180.85289001464844" height="12.478072166442871" style="color: rgb(0, 0, 0);" class="" transform="rotate(-54.82992172241211 315.14147949218744,198.865478515625) " id="svg_22"/><rect fill="#000000" stroke="#000000" stroke-width="2" stroke-linejoin="round" stroke-dashoffset="" fill-rule="nonzero" x="455.4605712890625" y="234.28126525878906" width="153.4667510986328" height="12.740654945373535" style="color: rgb(0, 0, 0);" class="" transform="rotate(-33.600345611572266 532.1939697265626,240.651596069336) " id="svg_18"/><rect fill="#000000" stroke="#000000" stroke-width="2" stroke-linejoin="round" stroke-dashoffset="" fill-rule="nonzero" x="457.5568542480469" y="299.59869384765625" width="204.62185668945312" height="10.994895935058594" style="color: rgb(0, 0, 0);" class="" transform="rotate(108.17989349365234 559.8677978515625,305.0961608886719) " id="svg_14"/><rect fill="#000000" stroke="#000000" stroke-width="2" stroke-linejoin="round" stroke-dashoffset="" fill-rule="nonzero" x="205" y="390" width="328.9999694824219" height="14" style="color: rgb(0, 0, 0);" class="" id="svg_12"/><path fill="#000000" fill-opacity="1" stroke="#000000" stroke-opacity="1" stroke-width="2" stroke-dasharray="none" stroke-linejoin="round" stroke-linecap="butt" stroke-dashoffset="" fill-rule="nonzero" opacity="1" marker-start="" marker-mid="" marker-end="" d="M129,207.5 C129,201.6988950276243 133.02762430939225,197 138,197 C142.97237569060775,197 147,201.6988950276243 147,207.5 C147,213.3011049723757 142.97237569060775,218 138,218 C133.02762430939225,218 129,213.3011049723757 129,207.5 Z" id="svg_24"/><path fill="#000000" fill-opacity="1" stroke="#000000" stroke-opacity="1" stroke-width="2" stroke-dasharray="none" stroke-linejoin="round" stroke-linecap="butt" stroke-dashoffset="" fill-rule="nonzero" opacity="1" marker-start="" marker-mid="" marker-end="" d="M359,124 C359,119.58011049723757 362.1325966850829,116 366,116 C369.8674033149171,116 373,119.58011049723757 373,124 C373,128.41988950276243 369.8674033149171,132 366,132 C362.1325966850829,132 359,128.41988950276243 359,124 z" id="svg_1" class=""/><path fill="#000000" fill-opacity="1" stroke="#000000" stroke-opacity="1" stroke-width="2" stroke-dasharray="none" stroke-linejoin="round" stroke-linecap="butt" stroke-dashoffset="" fill-rule="nonzero" opacity="1" marker-start="" marker-mid="" marker-end="" d="M586,200.5 C586,196.35635359116023 589.3563535911602,193 593.5,193 C597.6436464088398,193 601,196.35635359116023 601,200.5 C601,204.64364640883977 597.6436464088398,208 593.5,208 C589.3563535911602,208 586,204.64364640883977 586,200.5 z" id="svg_4" class=""/><path fill="#000000" fill-opacity="1" stroke="#000000" stroke-opacity="1" stroke-width="2" stroke-dasharray="none" stroke-linejoin="round" stroke-linecap="butt" stroke-dashoffset="" fill-rule="nonzero" opacity="1" marker-start="" marker-mid="" marker-end="" d="M199,433.0000001192093 C199,428.58011055058535 202.13259672509372,425 206.00000008940697,425 C209.86740345372021,425 213.00000017881393,428.58011055058535 213.00000017881393,433.0000001192093 C213.00000017881393,437.41988968783323 209.86740345372021,441.0000002384186 206.00000008940697,441.0000002384186 C202.13259672509372,441.0000002384186 199,437.41988968783323 199,433.0000001192093 z" id="svg_7" class=""/><path fill="#000000" fill-opacity="1" stroke="#000000" stroke-opacity="1" stroke-width="2" stroke-dasharray="none" stroke-linejoin="round" stroke-linecap="butt" stroke-dashoffset="" fill-rule="nonzero" opacity="1" marker-start="" marker-mid="" marker-end="" d="M202,395 C202,389.47513812154693 205.8038674033149,385 210.5,385 C215.1961325966851,385 219,389.47513812154693 219,395 C219,400.52486187845307 215.1961325966851,405 210.5,405 C205.8038674033149,405 202,400.52486187845307 202,395 z" class="" id="svg_21"/><path fill="#000000" fill-opacity="1" stroke="#000000" stroke-opacity="1" stroke-width="2" stroke-dasharray="none" stroke-linejoin="round" stroke-linecap="butt" stroke-dashoffset="" fill-rule="nonzero" opacity="1" marker-start="" marker-mid="" marker-end="" d="M523,432.0000001043081 C523,428.1325967317622 526.8038674033149,425 531.5,425 C536.1961325966851,425 540,428.1325967317622 540,432.0000001043081 C540,435.86740347685407 536.1961325966851,439.00000020861626 531.5,439.00000020861626 C526.8038674033149,439.00000020861626 523,435.86740347685407 523,432.0000001043081 z" class="" id="svg_20"/><path fill="#000000" fill-opacity="1" stroke="#000000" stroke-opacity="1" stroke-width="2" stroke-dasharray="none" stroke-linejoin="round" stroke-linecap="butt" stroke-dashoffset="" fill-rule="nonzero" opacity="1" marker-start="" marker-mid="" marker-end="" d="M523,394 C523,388.47513812154693 526.8038674033149,384 531.5,384 C536.1961325966851,384 540,388.47513812154693 540,394 C540,399.52486187845307 536.1961325966851,404 531.5,404 C526.8038674033149,404 523,399.52486187845307 523,394 z" class="" id="svg_19"/><path fill="#000000" fill-opacity="1" stroke="#000000" stroke-opacity="1" stroke-width="2" stroke-dasharray="none" stroke-linejoin="round" stroke-linecap="butt" stroke-dashoffset="" fill-rule="nonzero" opacity="1" marker-start="" marker-mid="" marker-end="" d="M209,394 C209,394 209.22375690607734,394 209.5,394 C209.77624309392266,394 210,394 210,394 C210,394 209.77624309392266,394 209.5,394 C209.22375690607734,394 209,394 209,394 z" id="svg_10" class=""/><path fill="#000000" fill-opacity="1" stroke="#000000" stroke-opacity="1" stroke-width="2" stroke-dasharray="none" stroke-linejoin="round" stroke-linecap="butt" stroke-dashoffset="" fill-rule="nonzero" opacity="1" marker-start="" marker-mid="" marker-end="" d="M207,396.5 C207,396.22375690607737 207,396 207,396 C207,396 207,396.22375690607737 207,396.5 C207,396.77624309392263 207,397 207,397 C207,397 207,396.77624309392263 207,396.5 Z" id="svg_15"/></g></svg>