<svg xmlns="http://www.w3.org/2000/svg" xmlns:se="http://svg-edit.googlecode.com" xmlns:xlink="http://www.w3.org/1999/xlink" xmlns:dc="http://purl.org/dc/elements/1.1/" xmlns:cc="http://creativecommons.org/ns#" xmlns:rdf="http://www.w3.org/1999/02/22-rdf-syntax-ns#" xmlns:inkscape="http://www.inkscape.org/namespaces/inkscape" width="777" height="480" style="">                                    <title>my vector image</title>                                    <!-- Created with Vector Paint - http://www.vectorpaint.yaks.com/ https://chrome.google.com/webstore/detail/hnbpdiengicdefcjecjbnjnoifekhgdo -->                                    <rect id="backgroundrect" width="100%" height="100%" x="0" y="0" fill="#FFFFFF" stroke="none"/>                                <g class="currentLayer" style=""><title>Layer 1</title><path fill="#fbd971" fill-opacity="1" stroke="none" stroke-width="2" stroke-dasharray="none" stroke-linejoin="round" stroke-linecap="butt" stroke-dashoffset="" fill-rule="nonzero" opacity="1" marker-start="" marker-mid="" marker-end="" d="M193,214 C193,115.10497237569061 277.3563535911602,35 381.5,35 C485.6436464088398,35 570,115.10497237569061 570,214 C570,312.89502762430936 485.6436464088398,393 381.5,393 C277.3563535911602,393 193,312.89502762430936 193,214 z" id="svg_22" class="selected"/><path fill="#f29c1f" fill-opacity="1" stroke="none" stroke-opacity="1" stroke-width="2" stroke-dasharray="none" stroke-linejoin="round" stroke-linecap="butt" stroke-dashoffset="" fill-rule="nonzero" opacity="1" marker-start="" marker-mid="" marker-end="" d="M498.5,136.50000005960464 C498.5,128.76519339683966 506.33149176605497,122.5 516.0000001192093,122.5 C525.6685084723636,122.5 533.5000002384186,128.76519339683966 533.5000002384186,136.50000005960464 C533.5000002384186,144.23480672236965 525.6685084723636,150.5000001192093 516.0000001192093,150.5000001192093 C506.33149176605497,150.5000001192093 498.5,144.23480672236965 498.5,136.50000005960464 z" class="" id="svg_13"/><path fill="#f29c1f" fill-opacity="1" stroke="none" stroke-opacity="1" stroke-width="2" stroke-dasharray="none" stroke-linejoin="round" stroke-linecap="butt" stroke-dashoffset="" fill-rule="nonzero" opacity="1" marker-start="" marker-mid="" marker-end="" d="M402,137.00000005960464 C402,129.26519339683966 409.83149176605497,123 419.5000001192093,123 C429.1685084723636,123 437.0000002384186,129.26519339683966 437.0000002384186,137.00000005960464 C437.0000002384186,144.73480672236965 429.1685084723636,151.0000001192093 419.5000001192093,151.0000001192093 C409.83149176605497,151.0000001192093 402,144.73480672236965 402,137.00000005960464 z" class="" id="svg_12"/><rect fill="#f0c419" stroke="none" stroke-width="2" stroke-linejoin="round" stroke-dashoffset="" fill-rule="nonzero" x="286.0000057220459" y="272.5" width="197.9999942779541" height="28" style="color: rgb(242, 156, 31);" class="" id="svg_5" fill-opacity="1"/><path fill="#f0c419" fill-opacity="1" stroke="none" stroke-opacity="1" stroke-width="2" stroke-dasharray="none" stroke-linejoin="round" stroke-linecap="butt" stroke-dashoffset="" fill-rule="nonzero" opacity="1" marker-start="" marker-mid="" marker-end="" d="M467.5,286.2500002980232 C467.5,278.65331505049653 474.66022099447514,272.5 483.5,272.5 C492.33977900552486,272.5 499.5,278.65331505049653 499.5,286.2500002980232 C499.5,293.84668554554986 492.33977900552486,300.00000059604645 483.5,300.00000059604645 C474.66022099447514,300.00000059604645 467.5,293.84668554554986 467.5,286.2500002980232 z" class="" id="svg_18"/><rect fill="#f29c1f" stroke="none" stroke-width="2" stroke-linejoin="round" stroke-dashoffset="" fill-rule="nonzero" x="417.5" y="122.5" width="102" height="28" style="color: rgb(242, 156, 31);" class="" id="svg_4"/><rect fill="#f29c1f" stroke="none" stroke-width="2" stroke-linejoin="round" stroke-dashoffset="" fill-rule="nonzero" id="svg_1" x="249" y="122" width="102" height="28" style="color: rgb(242, 156, 31);" class=""/><path fill="#f29c1f" fill-opacity="1" stroke="none" stroke-opacity="1" stroke-width="2" stroke-dasharray="none" stroke-linejoin="round" stroke-linecap="butt" stroke-dashoffset="" fill-rule="nonzero" opacity="1" marker-start="" marker-mid="" marker-end="" d="M327.5,136.00000005960464 C327.5,128.26519339683966 335.33149176605497,122 345.0000001192093,122 C354.6685084723636,122 362.5000002384186,128.26519339683966 362.5000002384186,136.00000005960464 C362.5000002384186,143.73480672236965 354.6685084723636,150.0000001192093 345.0000001192093,150.0000001192093 C335.33149176605497,150.0000001192093 327.5,143.73480672236965 327.5,136.00000005960464 z" class="" id="svg_11"/><path fill="#f29c1f" fill-opacity="1" stroke="none" stroke-opacity="1" stroke-width="2" stroke-dasharray="none" stroke-linejoin="round" stroke-linecap="butt" stroke-dashoffset="" fill-rule="nonzero" opacity="1" marker-start="" marker-mid="" marker-end="" d="M236,136.00000005960464 C236,128.26519339683966 243.83149176605497,122 253.5000001192093,122 C263.1685084723636,122 271.0000002384186,128.26519339683966 271.0000002384186,136.00000005960464 C271.0000002384186,143.73480672236965 263.1685084723636,150.0000001192093 253.5000001192093,150.0000001192093 C243.83149176605497,150.0000001192093 236,143.73480672236965 236,136.00000005960464 z" id="svg_6" class=""/><path fill="#f0c419" fill-opacity="1" stroke="none" stroke-opacity="1" stroke-width="2" stroke-dasharray="none" stroke-linejoin="round" stroke-linecap="butt" stroke-dashoffset="" fill-rule="nonzero" opacity="1" marker-start="" marker-mid="" marker-end="" d="M270.5,286.7500002980232 C270.5,279.15331505049653 277.66022099447514,273 286.5,273 C295.33977900552486,273 302.5,279.15331505049653 302.5,286.7500002980232 C302.5,294.34668554554986 295.33977900552486,300.50000059604645 286.5,300.50000059604645 C277.66022099447514,300.50000059604645 270.5,294.34668554554986 270.5,286.7500002980232 z" id="svg_15" class=""/></g></svg>