<svg xmlns="http://www.w3.org/2000/svg" xmlns:se="http://svg-edit.googlecode.com" xmlns:xlink="http://www.w3.org/1999/xlink" xmlns:dc="http://purl.org/dc/elements/1.1/" xmlns:cc="http://creativecommons.org/ns#" xmlns:rdf="http://www.w3.org/1999/02/22-rdf-syntax-ns#" xmlns:inkscape="http://www.inkscape.org/namespaces/inkscape" width="777" height="480" style="">                                    <title>my vector image</title>                                    <!-- Created with Vector Paint - http://www.vectorpaint.yaks.com/ https://chrome.google.com/webstore/detail/hnbpdiengicdefcjecjbnjnoifekhgdo -->                                    <rect id="backgroundrect" width="100%" height="100%" x="0" y="0" fill="#FFFFFF" stroke="none"/>                                <g class="currentLayer" style=""><title>Layer 1</title><path fill="#fbd971" fill-opacity="1" stroke="none" stroke-width="2" stroke-dasharray="none" stroke-linejoin="round" stroke-linecap="butt" stroke-dashoffset="" fill-rule="nonzero" opacity="1" marker-start="" marker-mid="" marker-end="" d="M192.5,213 C192.5,114.10497237569061 276.8563535911602,34 381,34 C485.1436464088398,34 569.5,114.10497237569061 569.5,213 C569.5,311.89502762430936 485.1436464088398,392 381,392 C276.8563535911602,392 192.5,311.89502762430936 192.5,213 z" id="svg_22" class=""/><path fill="#af8066" fill-opacity="1" stroke="none" stroke-opacity="1" stroke-width="2" stroke-dasharray="none" stroke-linejoin="round" stroke-linecap="butt" stroke-dashoffset="" fill-rule="nonzero" opacity="1" marker-start="" marker-mid="" marker-end="" d="M422.5,148 C422.5,131.70165745856355 435.92541436464086,118.5 452.5,118.5 C469.07458563535914,118.5 482.5,131.70165745856355 482.5,148 C482.5,164.29834254143645 469.07458563535914,177.5 452.5,177.5 C435.92541436464086,177.5 422.5,164.29834254143645 422.5,148 z" class="" id="svg_6"/><rect fill="#f0c419" stroke="none" stroke-width="2" stroke-linejoin="round" stroke-dashoffset="" fill-rule="nonzero" x="286" y="272.5" width="198" height="28" style="color: rgb(242, 156, 31);" class="" id="svg_5" fill-opacity="1"/><path fill="#f0c419" fill-opacity="1" stroke="none" stroke-opacity="1" stroke-width="2" stroke-dasharray="none" stroke-linejoin="round" stroke-linecap="butt" stroke-dashoffset="" fill-rule="nonzero" opacity="1" marker-start="" marker-mid="" marker-end="" d="M467.5,286.2500002980232 C467.5,278.65331505049653 474.66022099447514,272.5 483.5,272.5 C492.33977900552486,272.5 499.5,278.65331505049653 499.5,286.2500002980232 C499.5,293.84668554554986 492.33977900552486,300.00000059604645 483.5,300.00000059604645 C474.66022099447514,300.00000059604645 467.5,293.84668554554986 467.5,286.2500002980232 z" class="" id="svg_18"/><path fill="#f0c419" fill-opacity="1" stroke="none" stroke-opacity="1" stroke-width="2" stroke-dasharray="none" stroke-linejoin="round" stroke-linecap="butt" stroke-dashoffset="" fill-rule="nonzero" opacity="1" marker-start="" marker-mid="" marker-end="" d="M270.5,286.7500002980232 C270.5,279.15331505049653 277.66022099447514,273 286.5,273 C295.33977900552486,273 302.5,279.15331505049653 302.5,286.7500002980232 C302.5,294.34668554554986 295.33977900552486,300.50000059604645 286.5,300.50000059604645 C277.66022099447514,300.50000059604645 270.5,294.34668554554986 270.5,286.7500002980232 z" id="svg_15" class=""/><path fill="#af8066" fill-opacity="1" stroke="none" stroke-opacity="1" stroke-width="2" stroke-dasharray="none" stroke-linejoin="round" stroke-linecap="butt" stroke-dashoffset="" fill-rule="nonzero" opacity="1" marker-start="" marker-mid="" marker-end="" d="M265,149 C265,132.70165745856355 278.42541436464086,119.5 295,119.5 C311.57458563535914,119.5 325,132.70165745856355 325,149 C325,165.29834254143645 311.57458563535914,178.5 295,178.5 C278.42541436464086,178.5 265,165.29834254143645 265,149 z" id="svg_2" class=""/></g></svg>