<svg xmlns="http://www.w3.org/2000/svg" xmlns:se="http://svg-edit.googlecode.com" xmlns:xlink="http://www.w3.org/1999/xlink" xmlns:dc="http://purl.org/dc/elements/1.1/" xmlns:cc="http://creativecommons.org/ns#" xmlns:rdf="http://www.w3.org/1999/02/22-rdf-syntax-ns#" xmlns:inkscape="http://www.inkscape.org/namespaces/inkscape" width="777" height="480" style="">                                    <title>my vector image</title>                                    <!-- Created with Vector Paint - http://www.vectorpaint.yaks.com/ https://chrome.google.com/webstore/detail/hnbpdiengicdefcjecjbnjnoifekhgdo -->                                    <rect id="backgroundrect" width="100%" height="100%" x="0" y="0" fill="#FFFFFF" stroke="none"/>                                <g class="currentLayer" style=""><title>Layer 1</title><path fill="#000000" stroke-width="2" stroke-linejoin="round" stroke-dashoffset="" fill-rule="nonzero" marker-start="" marker-mid="" marker-end="" id="svg_7" d="M194.8981707233763,142.75745376350048 L194.8981707233763,142.75745376350048 C194.8981707233763,118.54063556898001 213.26977937002187,98.90902981721283 235.93231083899025,98.90902981721283 L254.5841977514434,98.90902981721283 L254.5841977514434,98.90902981721283 L344.1132438394356,98.90902981721283 L511.98015950081594,98.90902981721283 C522.8631175481175,98.90902981721283 533.3002968347716,103.52875547921539 540.9957093618893,111.75194297140479 C548.6910775218748,119.97511765720489 553.014321799996,131.1281380943382 553.014321799996,142.75745376350048 L553.014321799996,252.3785328388036 L553.014321799996,252.3785328388036 L553.014321799996,318.15116235504036 L553.014321799996,318.15116235504036 C553.014321799996,342.36799335595015 534.6427242451334,361.99958630132795 511.98017059259905,361.99958630132795 L344.1132549312187,361.99958630132795 L254.58420884322646,361.99958630132795 L235.9323219307733,361.99958630132795 C213.26979046180492,361.99958630132795 194.89818181515935,342.36799335595015 194.89818181515935,318.15116235504036 L194.89818181515935,318.15116235504036 L194.89818181515935,252.3785328388036 L194.89818181515935,252.3785328388036 L194.8981707233763,142.75745376350048 z" style="color: rgb(175, 128, 102);" class="" transform="rotate(89.751220703125 373.95623779296875,230.45431518554693) " fill-opacity="1"/><path fill="#ffffff" stroke-width="2" stroke-linejoin="round" stroke-dashoffset="" fill-rule="nonzero" marker-start="" marker-mid="" marker-end="" id="svg_10" d="M288.42566,89.63696 L288.42566,89.63696 C288.42566,85.04685 297.62139,81.32583 308.96491000000003,81.32583 L318.30093,81.32583 L318.30093,81.32583 L363.11384,81.32583 L447.13802999999996,81.32583 C452.58538999999996,81.32583 457.80962,82.20146 461.66148999999996,83.7601 C465.51333,85.31874 467.67728,87.43271 467.67728,89.63696 L467.67728,110.41477 L467.67728,110.41477 L467.67728,122.88146 L467.67728,122.88146 C467.67728,127.47157 458.48156,131.19258000000002 447.13802999999996,131.19258000000002 L363.11385,131.19258000000002 L318.30093999999997,131.19258000000002 L308.96491000000003,131.19258000000002 C297.6214,131.19258000000002 288.42567,127.47157 288.42567,122.88146 L288.42567,122.88146 L288.42567,110.41477 L288.42567,110.41477 L288.42566,89.63696 z" style="color: rgb(175, 128, 102);" class="" fill-opacity="1" stroke="#000000" stroke-opacity="1"/><path fill="#ffffff" stroke="#000000" stroke-width="2" stroke-linejoin="round" stroke-dashoffset="" fill-rule="nonzero" marker-start="" marker-mid="" marker-end="" id="svg_13" d="M436.82515549027016,290.5521372560818 L436.82515549027016,290.5521372560818 C445.084034103589,290.5521372560818 451.77918270680823,297.39255315711773 451.77918270680823,305.830627939223 C451.77918270680823,314.268709424014 445.08403738376063,321.10911862236435 436.82515549027016,321.10911862236435 C428.566267036436,321.10911862236435 421.8711282737318,314.2687161266997 421.8711282737318,305.830627939223 C421.8711282737318,297.3925498057749 428.56626375626456,290.5521372560818 436.82515549027016,290.5521372560818 zM436.82515549027016,389.8363504378268 C428.566267036436,389.8363504378268 421.8711282737318,382.9959412394765 421.8711282737318,374.5578564033426 C421.8711282737318,366.11978162123745 428.56626375626456,359.27936572020144 436.82515549027016,359.27936572020144 C445.084034103589,359.27936572020144 451.77918270680823,366.1197782698945 451.77918270680823,374.5578564033426 C451.77918270680823,382.9959412394765 445.08403738376063,389.8363504378268 436.82515549027016,389.8363504378268 zM392.848700516887,324.9157514881415 L480.80160718348134,324.9157514881415 L480.80160718348134,355.472736205767 L392.848700516887,355.472736205767 L392.848700516887,324.9157514881415 z" style="color: rgb(175, 128, 102);" class="" transform="rotate(143.67005920410156 436.82513427734375,340.1942443847656) "/><path fill="#ffffff" stroke="#000000" stroke-width="2" stroke-linejoin="round" stroke-dashoffset="" fill-rule="nonzero" marker-start="" marker-mid="" marker-end="" id="svg_2" d="M259.23568153747215,192.60286336378743 L292.72354687077006,192.60286336378743 L292.72354687077006,159.1149947279302 L324.2478359475299,159.1149947279302 L324.2478359475299,192.60286336378743 L357.7356880705913,192.60286336378743 L357.7356880705913,224.12715244054687 L324.2478359475299,224.12715244054687 L324.2478359475299,257.6150045636076 L292.72354687077006,257.6150045636076 L292.72354687077006,224.12715244054687 L259.23568153747215,224.12715244054687 L259.23568153747215,192.60286336378743 z" style="color: rgb(175, 128, 102);" class=""/><path fill="#ffffff" stroke="#000000" stroke-width="2" stroke-linejoin="round" stroke-dashoffset="" fill-rule="nonzero" marker-start="" marker-mid="" marker-end="" id="svg_1" d="M391.30066763385935,185.5641203698962 L415.3031204084167,161.56166759533585 L440.80055377272726,187.05889200319402 L466.29798713702564,161.56166759533585 L490.300665451884,185.5641203698962 L464.8032254540426,211.06155373420094 L490.300665451884,236.5589870985066 L466.29798713702564,260.56166541335887 L440.80055377272726,235.06422541551527 L415.3031204084167,260.56166541335887 L391.30066763385935,236.5589870985066 L416.7978920417145,211.06155373420094 L391.30066763385935,185.5641203698962 z" style="color: rgb(175, 128, 102);" class=""/><path fill="#ffffff" stroke="#000000" stroke-width="2" stroke-linejoin="round" stroke-dashoffset="" fill-rule="nonzero" marker-start="" marker-mid="" marker-end="" id="svg_5" d="M263.73561094609516,317.3761388094481 L360.7356055039852,317.3761388094481 L360.7356055039852,348.42036797691867 L263.73561094609516,348.42036797691867 L263.73561094609516,317.3761388094481 z" style="color: rgb(175, 128, 102);" class="selected"/></g></svg>