<svg width="107" height="13" viewBox="0 0 107 13" fill="none" xmlns="http://www.w3.org/2000/svg">
<path d="M10.0703 6.67969C10.0703 7.79427 9.88281 8.76823 9.50781 9.60156C9.13281 10.4297 8.60156 11.0625 7.91406 11.5C7.22656 11.9375 6.42448 12.1562 5.50781 12.1562C4.61198 12.1562 3.81771 11.9375 3.125 11.5C2.43229 11.0573 1.89323 10.4297 1.50781 9.61719C1.1276 8.79948 0.932292 7.85417 0.921875 6.78125V5.96094C0.921875 4.86719 1.11198 3.90104 1.49219 3.0625C1.8724 2.22396 2.40885 1.58333 3.10156 1.14062C3.79948 0.692708 4.59635 0.46875 5.49219 0.46875C6.40365 0.46875 7.20573 0.690104 7.89844 1.13281C8.59635 1.57031 9.13281 2.20833 9.50781 3.04688C9.88281 3.88021 10.0703 4.85156 10.0703 5.96094V6.67969ZM8.57812 5.94531C8.57812 4.59635 8.30729 3.5625 7.76562 2.84375C7.22396 2.11979 6.46615 1.75781 5.49219 1.75781C4.54427 1.75781 3.79688 2.11979 3.25 2.84375C2.70833 3.5625 2.42969 4.5625 2.41406 5.84375V6.67969C2.41406 7.98698 2.6875 9.01562 3.23438 9.76562C3.78646 10.5104 4.54427 10.8828 5.50781 10.8828C6.47656 10.8828 7.22656 10.5312 7.75781 9.82812C8.28906 9.11979 8.5625 8.10677 8.57812 6.78906V5.94531ZM20.3281 0.625V8.35938C20.3229 9.43229 19.9844 10.3099 19.3125 10.9922C18.6458 11.6745 17.7396 12.0573 16.5938 12.1406L16.1953 12.1562C14.9505 12.1562 13.9583 11.8203 13.2188 11.1484C12.4792 10.4766 12.1042 9.55208 12.0938 8.375V0.625H13.5781V8.32812C13.5781 9.15104 13.8047 9.79167 14.2578 10.25C14.7109 10.7031 15.3568 10.9297 16.1953 10.9297C17.0443 10.9297 17.6927 10.7031 18.1406 10.25C18.5938 9.79688 18.8203 9.15885 18.8203 8.33594V0.625H20.3281ZM26.8672 7.39844H24.1953V12H22.6875V0.625H26.4531C27.7344 0.625 28.7188 0.916667 29.4062 1.5C30.099 2.08333 30.4453 2.93229 30.4453 4.04688C30.4453 4.75521 30.2526 5.3724 29.8672 5.89844C29.487 6.42448 28.9557 6.81771 28.2734 7.07812L30.9453 11.9062V12H29.3359L26.8672 7.39844ZM24.1953 6.17188H26.5C27.2448 6.17188 27.8359 5.97917 28.2734 5.59375C28.7161 5.20833 28.9375 4.69271 28.9375 4.04688C28.9375 3.34375 28.7266 2.80469 28.3047 2.42969C27.888 2.05469 27.2839 1.86458 26.4922 1.85938H24.1953V6.17188ZM39.875 6.92969C38.5885 6.5599 37.651 6.10677 37.0625 5.57031C36.4792 5.02865 36.1875 4.36198 36.1875 3.57031C36.1875 2.67448 36.5443 1.9349 37.2578 1.35156C37.9766 0.763021 38.9089 0.46875 40.0547 0.46875C40.8359 0.46875 41.5312 0.619792 42.1406 0.921875C42.7552 1.22396 43.2292 1.64062 43.5625 2.17188C43.901 2.70312 44.0703 3.28385 44.0703 3.91406H42.5625C42.5625 3.22656 42.3438 2.6875 41.9062 2.29688C41.4688 1.90104 40.8516 1.70312 40.0547 1.70312C39.3151 1.70312 38.737 1.86719 38.3203 2.19531C37.9089 2.51823 37.7031 2.96875 37.7031 3.54688C37.7031 4.01042 37.8984 4.40365 38.2891 4.72656C38.6849 5.04427 39.3542 5.33594 40.2969 5.60156C41.2448 5.86719 41.9844 6.16146 42.5156 6.48438C43.0521 6.80208 43.4479 7.17448 43.7031 7.60156C43.9635 8.02865 44.0938 8.53125 44.0938 9.10938C44.0938 10.0312 43.7344 10.7708 43.0156 11.3281C42.2969 11.8802 41.3359 12.1562 40.1328 12.1562C39.3516 12.1562 38.6224 12.0078 37.9453 11.7109C37.2682 11.4089 36.7448 10.9974 36.375 10.4766C36.0104 9.95573 35.8281 9.36458 35.8281 8.70312H37.3359C37.3359 9.39062 37.5885 9.9349 38.0938 10.3359C38.6042 10.7318 39.2839 10.9297 40.1328 10.9297C40.9245 10.9297 41.5312 10.7682 41.9531 10.4453C42.375 10.1224 42.5859 9.68229 42.5859 9.125C42.5859 8.56771 42.3906 8.13802 42 7.83594C41.6094 7.52865 40.901 7.22656 39.875 6.92969ZM52.4531 6.74219H47.5234V10.7734H53.25V12H46.0234V0.625H53.1719V1.85938H47.5234V5.51562H52.4531V6.74219ZM59.2891 7.39844H56.6172V12H55.1094V0.625H58.875C60.1562 0.625 61.1406 0.916667 61.8281 1.5C62.5208 2.08333 62.8672 2.93229 62.8672 4.04688C62.8672 4.75521 62.6745 5.3724 62.2891 5.89844C61.9089 6.42448 61.3776 6.81771 60.6953 7.07812L63.3672 11.9062V12H61.7578L59.2891 7.39844ZM56.6172 6.17188H58.9219C59.6667 6.17188 60.2578 5.97917 60.6953 5.59375C61.138 5.20833 61.3594 4.69271 61.3594 4.04688C61.3594 3.34375 61.1484 2.80469 60.7266 2.42969C60.3099 2.05469 59.7057 1.86458 58.9141 1.85938H56.6172V6.17188ZM68.5859 10.0078L71.8359 0.625H73.4766L69.2578 12H67.9297L63.7188 0.625H65.3516L68.5859 10.0078ZM76.6172 12H75.1172V0.625H76.6172V12ZM87.7344 8.39062C87.5938 9.59375 87.1484 10.5234 86.3984 11.1797C85.6536 11.8307 84.6615 12.1562 83.4219 12.1562C82.0781 12.1562 81 11.6745 80.1875 10.7109C79.3802 9.7474 78.9766 8.45833 78.9766 6.84375V5.75C78.9766 4.69271 79.1641 3.76302 79.5391 2.96094C79.9193 2.15885 80.4557 1.54427 81.1484 1.11719C81.8411 0.684896 82.6432 0.46875 83.5547 0.46875C84.763 0.46875 85.7318 0.807292 86.4609 1.48438C87.1901 2.15625 87.6146 3.08854 87.7344 4.28125H86.2266C86.0964 3.375 85.8125 2.71875 85.375 2.3125C84.9427 1.90625 84.3359 1.70312 83.5547 1.70312C82.5964 1.70312 81.8438 2.05729 81.2969 2.76562C80.7552 3.47396 80.4844 4.48177 80.4844 5.78906V6.89062C80.4844 8.125 80.7422 9.10677 81.2578 9.83594C81.7734 10.5651 82.4948 10.9297 83.4219 10.9297C84.2552 10.9297 84.8932 10.7422 85.3359 10.3672C85.7839 9.98698 86.0807 9.32812 86.2266 8.39062H87.7344ZM96.2188 6.74219H91.2891V10.7734H97.0156V12H89.7891V0.625H96.9375V1.85938H91.2891V5.51562H96.2188V6.74219ZM102.234 6.92969C100.948 6.5599 100.01 6.10677 99.4219 5.57031C98.8385 5.02865 98.5469 4.36198 98.5469 3.57031C98.5469 2.67448 98.9036 1.9349 99.6172 1.35156C100.336 0.763021 101.268 0.46875 102.414 0.46875C103.195 0.46875 103.891 0.619792 104.5 0.921875C105.115 1.22396 105.589 1.64062 105.922 2.17188C106.26 2.70312 106.43 3.28385 106.43 3.91406H104.922C104.922 3.22656 104.703 2.6875 104.266 2.29688C103.828 1.90104 103.211 1.70312 102.414 1.70312C101.674 1.70312 101.096 1.86719 100.68 2.19531C100.268 2.51823 100.062 2.96875 100.062 3.54688C100.062 4.01042 100.258 4.40365 100.648 4.72656C101.044 5.04427 101.714 5.33594 102.656 5.60156C103.604 5.86719 104.344 6.16146 104.875 6.48438C105.411 6.80208 105.807 7.17448 106.062 7.60156C106.323 8.02865 106.453 8.53125 106.453 9.10938C106.453 10.0312 106.094 10.7708 105.375 11.3281C104.656 11.8802 103.695 12.1562 102.492 12.1562C101.711 12.1562 100.982 12.0078 100.305 11.7109C99.6276 11.4089 99.1042 10.9974 98.7344 10.4766C98.3698 9.95573 98.1875 9.36458 98.1875 8.70312H99.6953C99.6953 9.39062 99.9479 9.9349 100.453 10.3359C100.964 10.7318 101.643 10.9297 102.492 10.9297C103.284 10.9297 103.891 10.7682 104.312 10.4453C104.734 10.1224 104.945 9.68229 104.945 9.125C104.945 8.56771 104.75 8.13802 104.359 7.83594C103.969 7.52865 103.26 7.22656 102.234 6.92969Z" fill="#7690A8"/>
</svg>
