<svg xmlns="http://www.w3.org/2000/svg" width="28" height="28" fill="none" style=""><rect id="backgroundrect" width="100%" height="100%" x="0" y="0" fill="none" stroke="none"/>

<g class="currentLayer" style=""><title>Layer 1</title><path d="M22.00155530277729,13.4064 C21.74105530277729,13.4665 21.55705530277729,13.6988 21.55705530277729,13.9656 M27.658155302777292,7.73096 C27.658155302777292,3.88143 24.52675530277729,0.7500000000000001 20.67735530277729,0.7500000000000001 C17.97855530277729,0.7500000000000001 15.55975530277729,2.32181 14.40825530277729,4.66239 C13.25655530277729,2.32181 10.837555302777291,0.7500000000000001 8.13895530277729,0.7500000000000001 C4.2895753027772905,0.7500000000000001 1.1581553027772904,3.88143 1.1581553027772904,7.73096 C1.1581553027772904,10.4277 2.6763753027772905,12.8058 4.99955530277729,13.9656 C2.6763753027772905,15.1253 1.1581553027772904,17.5034 1.1581553027772904,20.2002 C1.1581553027772904,24.0497 4.2895753027772905,27.1812 8.13895530277729,27.1812 C10.837555302777291,27.1812 13.25655530277729,25.6093 14.40825530277729,23.2688 C15.55975530277729,25.6093 17.97855530277729,27.1812 20.67735530277729,27.1812 C24.52675530277729,27.1812 27.658155302777292,24.0497 27.658155302777292,20.2002 C27.658155302777292,17.5034 26.13995530277729,15.1253 23.816755302777292,13.9656 C26.13995530277729,12.8058 27.658155302777292,10.4277 27.658155302777292,7.73096 z" fill="none" stroke="#3DB370" stroke-width="0.5" id="svg_1" class=""/></g></svg>